<mxfile host="app.diagrams.net" modified="2024-03-26T06:36:01.050Z" agent="Mozilla/5.0 (Windows NT 10.0; Win64; x64) AppleWebKit/537.36 (KHTML, like Gecko) Chrome/122.0.0.0 Safari/537.36 Edg/122.0.0.0" etag="KP2247rhyxF6HXo7FfVj" version="24.0.7" type="github">
  <diagram name="Page-1" id="12e1b939-464a-85fe-373e-61e167be1490">
    <mxGraphModel dx="253" dy="355" grid="1" gridSize="10" guides="1" tooltips="1" connect="1" arrows="1" fold="1" page="0" pageScale="1.5" pageWidth="1169" pageHeight="826" background="none" math="0" shadow="0">
      <root>
        <mxCell id="0" />
        <mxCell id="1" parent="0" />
        <mxCell id="njrWuHVzc1N4BweSturP-118" value="" style="shape=filledEdge;curved=0;rounded=0;fixDash=1;endArrow=classic;strokeWidth=10;fillColor=#ffffff;edgeStyle=orthogonalEdgeStyle;html=1;sketch=1;hachureGap=4;jiggle=2;curveFitting=1;fontFamily=Architects Daughter;fontSource=https%3A%2F%2Ffonts.googleapis.com%2Fcss%3Ffamily%3DArchitects%2BDaughter;flowAnimation=0;endFill=1;exitX=1;exitY=0.5;exitDx=0;exitDy=0;strokeColor=#00CC00;" edge="1" parent="1" source="njrWuHVzc1N4BweSturP-63" target="njrWuHVzc1N4BweSturP-253">
          <mxGeometry width="60" height="40" relative="1" as="geometry">
            <mxPoint x="950" y="590" as="sourcePoint" />
            <mxPoint x="1106" y="761.5999999999999" as="targetPoint" />
          </mxGeometry>
        </mxCell>
        <mxCell id="njrWuHVzc1N4BweSturP-120" value="push" style="edgeLabel;html=1;align=center;verticalAlign=middle;resizable=0;points=[];sketch=1;hachureGap=4;jiggle=2;curveFitting=1;fontFamily=Architects Daughter;fontSource=https%3A%2F%2Ffonts.googleapis.com%2Fcss%3Ffamily%3DArchitects%2BDaughter;" vertex="1" connectable="0" parent="njrWuHVzc1N4BweSturP-118">
          <mxGeometry x="-0.1457" y="1" relative="1" as="geometry">
            <mxPoint as="offset" />
          </mxGeometry>
        </mxCell>
        <mxCell id="yztCQqR7ki3eF70dfu_K-1" value="&lt;font style=&quot;font-size: 17px;&quot;&gt;lega_wlan_api&lt;/font&gt;" style="rounded=0;whiteSpace=wrap;html=1;sketch=1;hachureGap=4;jiggle=2;curveFitting=1;fontFamily=Architects Daughter;fontSource=https%3A%2F%2Ffonts.googleapis.com%2Fcss%3Ffamily%3DArchitects%2BDaughter;" parent="1" vertex="1">
          <mxGeometry x="655" y="70" width="380" height="34.46" as="geometry" />
        </mxCell>
        <mxCell id="yztCQqR7ki3eF70dfu_K-14" value="" style="html=1;shadow=0;dashed=0;align=center;verticalAlign=middle;shape=mxgraph.arrows2.jumpInArrow;dy=8.08;dx=29.68;arrowHead=39.27;sketch=1;hachureGap=4;jiggle=2;curveFitting=1;fontFamily=Architects Daughter;fontSource=https%3A%2F%2Ffonts.googleapis.com%2Fcss%3Ffamily%3DArchitects%2BDaughter;rotation=-210;" parent="1" vertex="1">
          <mxGeometry x="918.18" y="194.01" width="83.83" height="97.04" as="geometry" />
        </mxCell>
        <mxCell id="yztCQqR7ki3eF70dfu_K-17" value="&lt;font style=&quot;font-size: 16px;&quot;&gt;pop&lt;/font&gt;" style="text;html=1;align=center;verticalAlign=middle;resizable=0;points=[];autosize=1;strokeColor=none;fillColor=none;fontFamily=Architects Daughter;fontSource=https%3A%2F%2Ffonts.googleapis.com%2Fcss%3Ffamily%3DArchitects%2BDaughter;" parent="1" vertex="1">
          <mxGeometry x="990" y="213.86" width="50" height="30" as="geometry" />
        </mxCell>
        <mxCell id="njrWuHVzc1N4BweSturP-39" value="" style="endArrow=classic;html=1;rounded=0;sketch=1;hachureGap=4;jiggle=2;curveFitting=1;fontFamily=Architects Daughter;fontSource=https%3A%2F%2Ffonts.googleapis.com%2Fcss%3Ffamily%3DArchitects%2BDaughter;entryX=0;entryY=0.5;entryDx=0;entryDy=0;edgeStyle=orthogonalEdgeStyle;" edge="1" parent="1" target="njrWuHVzc1N4BweSturP-227">
          <mxGeometry width="50" height="50" relative="1" as="geometry">
            <mxPoint x="790" y="107" as="sourcePoint" />
            <mxPoint x="758.69" y="175.44399999999996" as="targetPoint" />
            <Array as="points">
              <mxPoint x="790" y="107" />
              <mxPoint x="790" y="179" />
            </Array>
          </mxGeometry>
        </mxCell>
        <mxCell id="njrWuHVzc1N4BweSturP-40" value="&lt;span style=&quot;font-size: 13px;&quot;&gt;driver_cmd&lt;/span&gt;" style="edgeLabel;html=1;align=center;verticalAlign=middle;resizable=0;points=[];sketch=1;hachureGap=4;jiggle=2;curveFitting=1;fontFamily=Architects Daughter;fontSource=https%3A%2F%2Ffonts.googleapis.com%2Fcss%3Ffamily%3DArchitects%2BDaughter;" vertex="1" connectable="0" parent="njrWuHVzc1N4BweSturP-39">
          <mxGeometry x="-0.0729" y="-5" relative="1" as="geometry">
            <mxPoint y="-19" as="offset" />
          </mxGeometry>
        </mxCell>
        <mxCell id="njrWuHVzc1N4BweSturP-41" value="&lt;span style=&quot;font-size: 14px; font-weight: 400; text-wrap: nowrap;&quot;&gt;&lt;font color=&quot;#ff8000&quot;&gt;UWIFI_TASK&lt;/font&gt;&lt;/span&gt;" style="swimlane;whiteSpace=wrap;html=1;sketch=1;hachureGap=4;jiggle=2;curveFitting=1;fontFamily=Architects Daughter;fontSource=https%3A%2F%2Ffonts.googleapis.com%2Fcss%3Ffamily%3DArchitects%2BDaughter;startSize=30;strokeColor=#000000;" vertex="1" parent="1">
          <mxGeometry x="535" y="290" width="620" height="420" as="geometry">
            <mxRectangle x="535" y="290" width="615" height="30" as="alternateBounds" />
          </mxGeometry>
        </mxCell>
        <mxCell id="njrWuHVzc1N4BweSturP-43" value="&lt;span style=&quot;font-size: 14px; text-wrap: nowrap;&quot;&gt;uwifi_tx_process&lt;/span&gt;" style="rounded=1;whiteSpace=wrap;html=1;absoluteArcSize=1;arcSize=14;strokeWidth=1;sketch=1;hachureGap=4;jiggle=2;curveFitting=1;fontFamily=Architects Daughter;fontSource=https%3A%2F%2Ffonts.googleapis.com%2Fcss%3Ffamily%3DArchitects%2BDaughter;" vertex="1" parent="njrWuHVzc1N4BweSturP-41">
          <mxGeometry x="130" y="67.7" width="360" height="32.3" as="geometry" />
        </mxCell>
        <mxCell id="njrWuHVzc1N4BweSturP-44" value="" style="endArrow=classic;html=1;rounded=0;sketch=1;hachureGap=4;jiggle=2;curveFitting=1;fontFamily=Architects Daughter;fontSource=https%3A%2F%2Ffonts.googleapis.com%2Fcss%3Ffamily%3DArchitects%2BDaughter;exitX=0.133;exitY=1.077;exitDx=0;exitDy=0;exitPerimeter=0;entryX=0.5;entryY=0;entryDx=0;entryDy=0;" edge="1" parent="njrWuHVzc1N4BweSturP-41" source="njrWuHVzc1N4BweSturP-43" target="njrWuHVzc1N4BweSturP-48">
          <mxGeometry width="50" height="50" relative="1" as="geometry">
            <mxPoint x="90" y="272.3" as="sourcePoint" />
            <mxPoint x="108.03939673745776" y="172.3" as="targetPoint" />
          </mxGeometry>
        </mxCell>
        <mxCell id="njrWuHVzc1N4BweSturP-45" value="" style="endArrow=classic;html=1;rounded=0;sketch=1;hachureGap=4;jiggle=2;curveFitting=1;fontFamily=Architects Daughter;fontSource=https%3A%2F%2Ffonts.googleapis.com%2Fcss%3Ffamily%3DArchitects%2BDaughter;entryX=0.46;entryY=-0.026;entryDx=0;entryDy=0;exitX=0.525;exitY=1.114;exitDx=0;exitDy=0;entryPerimeter=0;exitPerimeter=0;" edge="1" parent="njrWuHVzc1N4BweSturP-41" source="njrWuHVzc1N4BweSturP-43" target="njrWuHVzc1N4BweSturP-52">
          <mxGeometry width="50" height="50" relative="1" as="geometry">
            <mxPoint x="320" y="202.3" as="sourcePoint" />
            <mxPoint x="330" y="187.3" as="targetPoint" />
          </mxGeometry>
        </mxCell>
        <mxCell id="njrWuHVzc1N4BweSturP-46" value="" style="endArrow=classic;html=1;rounded=0;sketch=1;hachureGap=4;jiggle=2;curveFitting=1;fontFamily=Architects Daughter;fontSource=https%3A%2F%2Ffonts.googleapis.com%2Fcss%3Ffamily%3DArchitects%2BDaughter;exitX=0.842;exitY=1.027;exitDx=0;exitDy=0;exitPerimeter=0;entryX=0.294;entryY=-0.022;entryDx=0;entryDy=0;entryPerimeter=0;" edge="1" parent="njrWuHVzc1N4BweSturP-41" source="njrWuHVzc1N4BweSturP-43" target="njrWuHVzc1N4BweSturP-56">
          <mxGeometry width="50" height="50" relative="1" as="geometry">
            <mxPoint x="500" y="142.3" as="sourcePoint" />
            <mxPoint x="527" y="152.3" as="targetPoint" />
          </mxGeometry>
        </mxCell>
        <mxCell id="njrWuHVzc1N4BweSturP-48" value="&lt;span style=&quot;font-size: 15px;&quot;&gt;uwifi_cfg80211_ops&lt;/span&gt;" style="swimlane;fontStyle=0;childLayout=stackLayout;horizontal=1;startSize=30;horizontalStack=0;resizeParent=1;resizeParentMax=0;resizeLast=0;collapsible=1;marginBottom=0;whiteSpace=wrap;html=1;sketch=1;hachureGap=4;jiggle=2;curveFitting=1;fontFamily=Architects Daughter;fontSource=https%3A%2F%2Ffonts.googleapis.com%2Fcss%3Ffamily%3DArchitects%2BDaughter;" vertex="1" collapsed="1" parent="njrWuHVzc1N4BweSturP-41">
          <mxGeometry x="40" y="160" width="150" height="30" as="geometry">
            <mxRectangle x="40" y="160" width="160" height="150" as="alternateBounds" />
          </mxGeometry>
        </mxCell>
        <mxCell id="njrWuHVzc1N4BweSturP-49" value="scan" style="text;strokeColor=none;fillColor=none;align=left;verticalAlign=middle;spacingLeft=4;spacingRight=4;overflow=hidden;points=[[0,0.5],[1,0.5]];portConstraint=eastwest;rotatable=0;whiteSpace=wrap;html=1;fontFamily=Architects Daughter;fontSource=https%3A%2F%2Ffonts.googleapis.com%2Fcss%3Ffamily%3DArchitects%2BDaughter;" vertex="1" parent="njrWuHVzc1N4BweSturP-48">
          <mxGeometry y="30" width="160" height="30" as="geometry" />
        </mxCell>
        <mxCell id="njrWuHVzc1N4BweSturP-50" value="connect" style="text;strokeColor=none;fillColor=none;align=left;verticalAlign=middle;spacingLeft=4;spacingRight=4;overflow=hidden;points=[[0,0.5],[1,0.5]];portConstraint=eastwest;rotatable=0;whiteSpace=wrap;html=1;fontFamily=Architects Daughter;fontSource=https%3A%2F%2Ffonts.googleapis.com%2Fcss%3Ffamily%3DArchitects%2BDaughter;" vertex="1" parent="njrWuHVzc1N4BweSturP-48">
          <mxGeometry y="60" width="160" height="30" as="geometry" />
        </mxCell>
        <mxCell id="njrWuHVzc1N4BweSturP-62" value="start_ap" style="text;strokeColor=none;fillColor=none;align=left;verticalAlign=middle;spacingLeft=4;spacingRight=4;overflow=hidden;points=[[0,0.5],[1,0.5]];portConstraint=eastwest;rotatable=0;whiteSpace=wrap;html=1;fontFamily=Architects Daughter;fontSource=https%3A%2F%2Ffonts.googleapis.com%2Fcss%3Ffamily%3DArchitects%2BDaughter;" vertex="1" parent="njrWuHVzc1N4BweSturP-48">
          <mxGeometry y="90" width="160" height="30" as="geometry" />
        </mxCell>
        <mxCell id="njrWuHVzc1N4BweSturP-51" value="&lt;b&gt;. . .&lt;/b&gt;" style="text;strokeColor=none;fillColor=none;align=left;verticalAlign=middle;spacingLeft=4;spacingRight=4;overflow=hidden;points=[[0,0.5],[1,0.5]];portConstraint=eastwest;rotatable=0;whiteSpace=wrap;html=1;fontFamily=Architects Daughter;fontSource=https%3A%2F%2Ffonts.googleapis.com%2Fcss%3Ffamily%3DArchitects%2BDaughter;" vertex="1" parent="njrWuHVzc1N4BweSturP-48">
          <mxGeometry y="120" width="160" height="30" as="geometry" />
        </mxCell>
        <mxCell id="njrWuHVzc1N4BweSturP-82" value="&lt;font style=&quot;font-size: 16px;&quot;&gt;asrw_msg&lt;/font&gt;" style="whiteSpace=wrap;html=1;sketch=1;hachureGap=4;jiggle=2;curveFitting=1;fontFamily=Architects Daughter;fontSource=https%3A%2F%2Ffonts.googleapis.com%2Fcss%3Ffamily%3DArchitects%2BDaughter;" vertex="1" parent="njrWuHVzc1N4BweSturP-41">
          <mxGeometry x="70" y="360" width="160" height="40" as="geometry" />
        </mxCell>
        <mxCell id="njrWuHVzc1N4BweSturP-73" value="" style="endArrow=classic;html=1;rounded=0;sketch=1;hachureGap=4;jiggle=2;curveFitting=1;fontFamily=Architects Daughter;fontSource=https%3A%2F%2Ffonts.googleapis.com%2Fcss%3Ffamily%3DArchitects%2BDaughter;entryX=0.25;entryY=0;entryDx=0;entryDy=0;exitX=0.461;exitY=1.016;exitDx=0;exitDy=0;exitPerimeter=0;" edge="1" parent="njrWuHVzc1N4BweSturP-41" source="njrWuHVzc1N4BweSturP-48" target="njrWuHVzc1N4BweSturP-82">
          <mxGeometry relative="1" as="geometry">
            <mxPoint x="-220" y="350" as="sourcePoint" />
            <mxPoint x="-60" y="350" as="targetPoint" />
          </mxGeometry>
        </mxCell>
        <mxCell id="njrWuHVzc1N4BweSturP-74" value="&lt;font style=&quot;font-size: 11px;&quot;&gt;msg_tag&lt;/font&gt;" style="edgeLabel;resizable=0;html=1;;align=center;verticalAlign=middle;sketch=1;hachureGap=4;jiggle=2;curveFitting=1;fontFamily=Architects Daughter;fontSource=https%3A%2F%2Ffonts.googleapis.com%2Fcss%3Ffamily%3DArchitects%2BDaughter;" connectable="0" vertex="1" parent="njrWuHVzc1N4BweSturP-73">
          <mxGeometry relative="1" as="geometry" />
        </mxCell>
        <mxCell id="njrWuHVzc1N4BweSturP-75" value="&lt;font style=&quot;font-size: 11px;&quot;&gt;DRV_TASK&lt;/font&gt;" style="edgeLabel;resizable=0;html=1;;align=left;verticalAlign=bottom;sketch=1;hachureGap=4;jiggle=2;curveFitting=1;fontFamily=Architects Daughter;fontSource=https%3A%2F%2Ffonts.googleapis.com%2Fcss%3Ffamily%3DArchitects%2BDaughter;rotation=-1;" connectable="0" vertex="1" parent="njrWuHVzc1N4BweSturP-73">
          <mxGeometry x="-1" relative="1" as="geometry">
            <mxPoint y="28" as="offset" />
          </mxGeometry>
        </mxCell>
        <mxCell id="njrWuHVzc1N4BweSturP-76" value="&lt;font style=&quot;font-size: 11px;&quot;&gt;TASK_XX&lt;/font&gt;" style="edgeLabel;resizable=0;html=1;;align=right;verticalAlign=bottom;sketch=1;hachureGap=4;jiggle=2;curveFitting=1;fontFamily=Architects Daughter;fontSource=https%3A%2F%2Ffonts.googleapis.com%2Fcss%3Ffamily%3DArchitects%2BDaughter;" connectable="0" vertex="1" parent="njrWuHVzc1N4BweSturP-73">
          <mxGeometry x="1" relative="1" as="geometry">
            <mxPoint y="-10" as="offset" />
          </mxGeometry>
        </mxCell>
        <mxCell id="njrWuHVzc1N4BweSturP-93" value="" style="endArrow=classic;html=1;rounded=0;sketch=1;hachureGap=4;jiggle=2;curveFitting=1;fontFamily=Architects Daughter;fontSource=https%3A%2F%2Ffonts.googleapis.com%2Fcss%3Ffamily%3DArchitects%2BDaughter;entryX=0.943;entryY=-0.02;entryDx=0;entryDy=0;edgeStyle=orthogonalEdgeStyle;exitX=0;exitY=0.5;exitDx=0;exitDy=0;entryPerimeter=0;" edge="1" parent="njrWuHVzc1N4BweSturP-41" source="njrWuHVzc1N4BweSturP-53" target="njrWuHVzc1N4BweSturP-82">
          <mxGeometry relative="1" as="geometry">
            <mxPoint x="425" y="210" as="sourcePoint" />
            <mxPoint x="455" y="380" as="targetPoint" />
            <Array as="points">
              <mxPoint x="221" y="205" />
            </Array>
          </mxGeometry>
        </mxCell>
        <mxCell id="njrWuHVzc1N4BweSturP-95" value="DRV_TASK" style="edgeLabel;resizable=0;html=1;;align=left;verticalAlign=bottom;sketch=1;hachureGap=4;jiggle=2;curveFitting=1;fontFamily=Architects Daughter;fontSource=https%3A%2F%2Ffonts.googleapis.com%2Fcss%3Ffamily%3DArchitects%2BDaughter;" connectable="0" vertex="1" parent="njrWuHVzc1N4BweSturP-93">
          <mxGeometry x="-1" relative="1" as="geometry">
            <mxPoint x="-45" y="-5" as="offset" />
          </mxGeometry>
        </mxCell>
        <mxCell id="njrWuHVzc1N4BweSturP-94" value="msg_tag" style="edgeLabel;resizable=0;html=1;;align=center;verticalAlign=middle;sketch=1;hachureGap=4;jiggle=2;curveFitting=1;fontFamily=Architects Daughter;fontSource=https%3A%2F%2Ffonts.googleapis.com%2Fcss%3Ffamily%3DArchitects%2BDaughter;" connectable="0" vertex="1" parent="njrWuHVzc1N4BweSturP-93">
          <mxGeometry relative="1" as="geometry" />
        </mxCell>
        <mxCell id="njrWuHVzc1N4BweSturP-96" value="TASK_MM" style="edgeLabel;resizable=0;html=1;;align=right;verticalAlign=bottom;sketch=1;hachureGap=4;jiggle=2;curveFitting=1;fontFamily=Architects Daughter;fontSource=https%3A%2F%2Ffonts.googleapis.com%2Fcss%3Ffamily%3DArchitects%2BDaughter;" connectable="0" vertex="1" parent="njrWuHVzc1N4BweSturP-93">
          <mxGeometry x="1" relative="1" as="geometry">
            <mxPoint x="54" y="-9" as="offset" />
          </mxGeometry>
        </mxCell>
        <mxCell id="njrWuHVzc1N4BweSturP-84" value="" style="endArrow=classic;html=1;rounded=0;sketch=1;hachureGap=4;jiggle=2;curveFitting=1;fontFamily=Architects Daughter;fontSource=https%3A%2F%2Ffonts.googleapis.com%2Fcss%3Ffamily%3DArchitects%2BDaughter;exitX=0.212;exitY=1.033;exitDx=0;exitDy=0;exitPerimeter=0;entryX=0.652;entryY=0.021;entryDx=0;entryDy=0;entryPerimeter=0;flowAnimation=0;" edge="1" parent="njrWuHVzc1N4BweSturP-41" source="njrWuHVzc1N4BweSturP-43" target="njrWuHVzc1N4BweSturP-82">
          <mxGeometry relative="1" as="geometry">
            <mxPoint x="207.15999999999954" y="113.70000000000007" as="sourcePoint" />
            <mxPoint x="205" y="360" as="targetPoint" />
          </mxGeometry>
        </mxCell>
        <mxCell id="njrWuHVzc1N4BweSturP-85" value="&lt;font style=&quot;font-size: 11px;&quot;&gt;msg_tag&lt;/font&gt;" style="edgeLabel;resizable=0;html=1;;align=center;verticalAlign=middle;sketch=1;hachureGap=4;jiggle=2;curveFitting=1;fontFamily=Architects Daughter;fontSource=https%3A%2F%2Ffonts.googleapis.com%2Fcss%3Ffamily%3DArchitects%2BDaughter;" connectable="0" vertex="1" parent="njrWuHVzc1N4BweSturP-84">
          <mxGeometry relative="1" as="geometry">
            <mxPoint x="-11" as="offset" />
          </mxGeometry>
        </mxCell>
        <mxCell id="njrWuHVzc1N4BweSturP-86" value="&lt;font style=&quot;font-size: 11px;&quot;&gt;DRV_TASK&lt;/font&gt;" style="edgeLabel;resizable=0;html=1;;align=left;verticalAlign=bottom;sketch=1;hachureGap=4;jiggle=2;curveFitting=1;fontFamily=Architects Daughter;fontSource=https%3A%2F%2Ffonts.googleapis.com%2Fcss%3Ffamily%3DArchitects%2BDaughter;rotation=-1;" connectable="0" vertex="1" parent="njrWuHVzc1N4BweSturP-84">
          <mxGeometry x="-1" relative="1" as="geometry">
            <mxPoint y="28" as="offset" />
          </mxGeometry>
        </mxCell>
        <mxCell id="njrWuHVzc1N4BweSturP-87" value="&lt;font style=&quot;font-size: 11px;&quot;&gt;TASK_XX&lt;/font&gt;" style="edgeLabel;resizable=0;html=1;;align=right;verticalAlign=bottom;sketch=1;hachureGap=4;jiggle=2;curveFitting=1;fontFamily=Architects Daughter;fontSource=https%3A%2F%2Ffonts.googleapis.com%2Fcss%3Ffamily%3DArchitects%2BDaughter;" connectable="0" vertex="1" parent="njrWuHVzc1N4BweSturP-84">
          <mxGeometry x="1" relative="1" as="geometry">
            <mxPoint y="-10" as="offset" />
          </mxGeometry>
        </mxCell>
        <mxCell id="njrWuHVzc1N4BweSturP-52" value="&lt;span style=&quot;font-size: 15px;&quot;&gt;uwifi_netdev_ops&lt;/span&gt;" style="swimlane;fontStyle=0;childLayout=stackLayout;horizontal=1;startSize=30;horizontalStack=0;resizeParent=1;resizeParentMax=0;resizeLast=0;collapsible=1;marginBottom=0;whiteSpace=wrap;html=1;sketch=1;hachureGap=4;jiggle=2;curveFitting=1;fontFamily=Architects Daughter;fontSource=https%3A%2F%2Ffonts.googleapis.com%2Fcss%3Ffamily%3DArchitects%2BDaughter;" vertex="1" parent="njrWuHVzc1N4BweSturP-41">
          <mxGeometry x="250" y="160" width="140" height="150" as="geometry">
            <mxRectangle x="250" y="160" width="150" height="30" as="alternateBounds" />
          </mxGeometry>
        </mxCell>
        <mxCell id="njrWuHVzc1N4BweSturP-53" value="open" style="text;align=left;verticalAlign=middle;spacingLeft=4;spacingRight=4;overflow=hidden;points=[[0,0.5],[1,0.5]];portConstraint=eastwest;rotatable=0;whiteSpace=wrap;html=1;fontFamily=Architects Daughter;fontSource=https%3A%2F%2Ffonts.googleapis.com%2Fcss%3Ffamily%3DArchitects%2BDaughter;noLabel=0;strokeWidth=0;fillColor=none;strokeColor=none;" vertex="1" parent="njrWuHVzc1N4BweSturP-52">
          <mxGeometry y="30" width="140" height="30" as="geometry" />
        </mxCell>
        <mxCell id="njrWuHVzc1N4BweSturP-54" value="stop" style="text;align=left;verticalAlign=middle;spacingLeft=4;spacingRight=4;overflow=hidden;points=[[0,0.5],[1,0.5]];portConstraint=eastwest;rotatable=0;whiteSpace=wrap;html=1;fontFamily=Architects Daughter;fontSource=https%3A%2F%2Ffonts.googleapis.com%2Fcss%3Ffamily%3DArchitects%2BDaughter;noLabel=0;strokeWidth=0;fillColor=none;strokeColor=none;" vertex="1" parent="njrWuHVzc1N4BweSturP-52">
          <mxGeometry y="60" width="140" height="30" as="geometry" />
        </mxCell>
        <mxCell id="njrWuHVzc1N4BweSturP-63" value="xmit" style="text;strokeColor=#00CC00;fillColor=none;align=left;verticalAlign=middle;spacingLeft=4;spacingRight=4;overflow=hidden;points=[[0,0.5],[1,0.5]];portConstraint=eastwest;rotatable=0;whiteSpace=wrap;html=1;fontFamily=Architects Daughter;fontSource=https%3A%2F%2Ffonts.googleapis.com%2Fcss%3Ffamily%3DArchitects%2BDaughter;dashed=1;dashPattern=8 8;strokeWidth=2;" vertex="1" parent="njrWuHVzc1N4BweSturP-52">
          <mxGeometry y="90" width="140" height="30" as="geometry" />
        </mxCell>
        <mxCell id="njrWuHVzc1N4BweSturP-55" value="select queue" style="text;strokeColor=none;fillColor=none;align=left;verticalAlign=middle;spacingLeft=4;spacingRight=4;overflow=hidden;points=[[0,0.5],[1,0.5]];portConstraint=eastwest;rotatable=0;whiteSpace=wrap;html=1;fontFamily=Architects Daughter;fontSource=https%3A%2F%2Ffonts.googleapis.com%2Fcss%3Ffamily%3DArchitects%2BDaughter;" vertex="1" parent="njrWuHVzc1N4BweSturP-52">
          <mxGeometry y="120" width="140" height="30" as="geometry" />
        </mxCell>
        <mxCell id="njrWuHVzc1N4BweSturP-56" value="&lt;span style=&quot;font-size: 15px;&quot;&gt;app event callback&lt;/span&gt;" style="swimlane;fontStyle=0;childLayout=stackLayout;horizontal=1;startSize=30;horizontalStack=0;resizeParent=1;resizeParentMax=0;resizeLast=0;collapsible=1;marginBottom=0;whiteSpace=wrap;html=1;sketch=1;hachureGap=4;jiggle=2;curveFitting=1;fontFamily=Architects Daughter;fontSource=https%3A%2F%2Ffonts.googleapis.com%2Fcss%3Ffamily%3DArchitects%2BDaughter;" vertex="1" collapsed="1" parent="njrWuHVzc1N4BweSturP-41">
          <mxGeometry x="442" y="160" width="148" height="30" as="geometry">
            <mxRectangle x="442" y="160" width="140" height="150" as="alternateBounds" />
          </mxGeometry>
        </mxCell>
        <mxCell id="njrWuHVzc1N4BweSturP-57" value="scan_completed" style="text;strokeColor=none;fillColor=none;align=left;verticalAlign=middle;spacingLeft=4;spacingRight=4;overflow=hidden;points=[[0,0.5],[1,0.5]];portConstraint=eastwest;rotatable=0;whiteSpace=wrap;html=1;fontFamily=Architects Daughter;fontSource=https%3A%2F%2Ffonts.googleapis.com%2Fcss%3Ffamily%3DArchitects%2BDaughter;" vertex="1" parent="njrWuHVzc1N4BweSturP-56">
          <mxGeometry y="30" width="140" height="30" as="geometry" />
        </mxCell>
        <mxCell id="njrWuHVzc1N4BweSturP-58" value="IP_GOT" style="text;strokeColor=none;fillColor=none;align=left;verticalAlign=middle;spacingLeft=4;spacingRight=4;overflow=hidden;points=[[0,0.5],[1,0.5]];portConstraint=eastwest;rotatable=0;whiteSpace=wrap;html=1;fontFamily=Architects Daughter;fontSource=https%3A%2F%2Ffonts.googleapis.com%2Fcss%3Ffamily%3DArchitects%2BDaughter;" vertex="1" parent="njrWuHVzc1N4BweSturP-56">
          <mxGeometry y="60" width="140" height="30" as="geometry" />
        </mxCell>
        <mxCell id="njrWuHVzc1N4BweSturP-59" value="AP_UP" style="text;strokeColor=none;fillColor=none;align=left;verticalAlign=middle;spacingLeft=4;spacingRight=4;overflow=hidden;points=[[0,0.5],[1,0.5]];portConstraint=eastwest;rotatable=0;whiteSpace=wrap;html=1;fontFamily=Architects Daughter;fontSource=https%3A%2F%2Ffonts.googleapis.com%2Fcss%3Ffamily%3DArchitects%2BDaughter;" vertex="1" parent="njrWuHVzc1N4BweSturP-56">
          <mxGeometry y="90" width="140" height="30" as="geometry" />
        </mxCell>
        <mxCell id="njrWuHVzc1N4BweSturP-64" value="&lt;b&gt;. . .&lt;/b&gt;" style="text;strokeColor=none;fillColor=none;align=left;verticalAlign=middle;spacingLeft=4;spacingRight=4;overflow=hidden;points=[[0,0.5],[1,0.5]];portConstraint=eastwest;rotatable=0;whiteSpace=wrap;html=1;fontFamily=Architects Daughter;fontSource=https%3A%2F%2Ffonts.googleapis.com%2Fcss%3Ffamily%3DArchitects%2BDaughter;" vertex="1" parent="njrWuHVzc1N4BweSturP-56">
          <mxGeometry y="120" width="140" height="30" as="geometry" />
        </mxCell>
        <mxCell id="njrWuHVzc1N4BweSturP-60" value="&lt;font style=&quot;font-size: 16px;&quot;&gt;KE TASK&lt;/font&gt;" style="rounded=0;whiteSpace=wrap;html=1;sketch=1;hachureGap=4;jiggle=2;curveFitting=1;fontFamily=Architects Daughter;fontSource=https%3A%2F%2Ffonts.googleapis.com%2Fcss%3Ffamily%3DArchitects%2BDaughter;" vertex="1" parent="1">
          <mxGeometry x="560" y="760" width="250" height="40" as="geometry" />
        </mxCell>
        <mxCell id="njrWuHVzc1N4BweSturP-88" value="" style="endArrow=classic;html=1;rounded=0;sketch=1;hachureGap=4;jiggle=2;curveFitting=1;fontFamily=Architects Daughter;fontSource=https%3A%2F%2Ffonts.googleapis.com%2Fcss%3Ffamily%3DArchitects%2BDaughter;exitX=0.5;exitY=1;exitDx=0;exitDy=0;entryX=0.5;entryY=0;entryDx=0;entryDy=0;" edge="1" parent="1" source="njrWuHVzc1N4BweSturP-82" target="njrWuHVzc1N4BweSturP-60">
          <mxGeometry width="50" height="50" relative="1" as="geometry">
            <mxPoint x="495" y="730" as="sourcePoint" />
            <mxPoint x="545" y="680" as="targetPoint" />
          </mxGeometry>
        </mxCell>
        <mxCell id="njrWuHVzc1N4BweSturP-91" value="" style="edgeStyle=elbowEdgeStyle;elbow=horizontal;endArrow=classic;html=1;curved=0;rounded=0;endSize=8;startSize=8;sketch=1;hachureGap=4;jiggle=2;curveFitting=1;fontFamily=Architects Daughter;fontSource=https%3A%2F%2Ffonts.googleapis.com%2Fcss%3Ffamily%3DArchitects%2BDaughter;entryX=1;entryY=0.5;entryDx=0;entryDy=0;" edge="1" parent="1" source="njrWuHVzc1N4BweSturP-56" target="yztCQqR7ki3eF70dfu_K-1">
          <mxGeometry width="50" height="50" relative="1" as="geometry">
            <mxPoint x="1320" y="540" as="sourcePoint" />
            <mxPoint x="1370" y="490" as="targetPoint" />
            <Array as="points">
              <mxPoint x="1210" y="310" />
            </Array>
          </mxGeometry>
        </mxCell>
        <mxCell id="njrWuHVzc1N4BweSturP-226" value="&lt;span style=&quot;font-size: 14px;&quot;&gt;uwifi_msg_queue&lt;/span&gt;" style="swimlane;fontStyle=0;childLayout=stackLayout;horizontal=1;startSize=26;fillColor=none;horizontalStack=0;resizeParent=1;resizeParentMax=0;resizeLast=0;collapsible=1;marginBottom=0;html=1;sketch=1;hachureGap=4;jiggle=2;curveFitting=1;fontFamily=Architects Daughter;fontSource=https%3A%2F%2Ffonts.googleapis.com%2Fcss%3Ffamily%3DArchitects%2BDaughter;" vertex="1" parent="1">
          <mxGeometry x="830" y="139.86" width="140" height="104" as="geometry" />
        </mxCell>
        <mxCell id="njrWuHVzc1N4BweSturP-227" value="cmd 1" style="text;strokeColor=default;fillColor=none;align=left;verticalAlign=top;spacingLeft=4;spacingRight=4;overflow=hidden;rotatable=0;points=[[0,0.5],[1,0.5]];portConstraint=eastwest;whiteSpace=wrap;html=1;fontFamily=Architects Daughter;fontSource=https%3A%2F%2Ffonts.googleapis.com%2Fcss%3Ffamily%3DArchitects%2BDaughter;" vertex="1" parent="njrWuHVzc1N4BweSturP-226">
          <mxGeometry y="26" width="140" height="26" as="geometry" />
        </mxCell>
        <mxCell id="njrWuHVzc1N4BweSturP-228" value="cmd 2" style="text;strokeColor=default;fillColor=none;align=left;verticalAlign=top;spacingLeft=4;spacingRight=4;overflow=hidden;rotatable=0;points=[[0,0.5],[1,0.5]];portConstraint=eastwest;whiteSpace=wrap;html=1;fontFamily=Architects Daughter;fontSource=https%3A%2F%2Ffonts.googleapis.com%2Fcss%3Ffamily%3DArchitects%2BDaughter;" vertex="1" parent="njrWuHVzc1N4BweSturP-226">
          <mxGeometry y="52" width="140" height="26" as="geometry" />
        </mxCell>
        <mxCell id="njrWuHVzc1N4BweSturP-229" value=". . ." style="text;strokeColor=default;fillColor=none;align=left;verticalAlign=top;spacingLeft=4;spacingRight=4;overflow=hidden;rotatable=0;points=[[0,0.5],[1,0.5]];portConstraint=eastwest;whiteSpace=wrap;html=1;fontFamily=Architects Daughter;fontSource=https%3A%2F%2Ffonts.googleapis.com%2Fcss%3Ffamily%3DArchitects%2BDaughter;" vertex="1" parent="njrWuHVzc1N4BweSturP-226">
          <mxGeometry y="78" width="140" height="26" as="geometry" />
        </mxCell>
        <mxCell id="njrWuHVzc1N4BweSturP-253" value="asrw_hw txq" style="swimlane;childLayout=stackLayout;resizeParent=1;resizeParentMax=0;horizontal=1;startSize=38;horizontalStack=0;html=1;sketch=1;hachureGap=4;jiggle=2;curveFitting=1;fontFamily=Architects Daughter;fontSource=https%3A%2F%2Ffonts.googleapis.com%2Fcss%3Ffamily%3DArchitects%2BDaughter;resizable=1;autosize=1;resizeWidth=1;resizeHeight=1;fixedWidth=1;rounded=1;arcSize=19;" vertex="1" parent="1">
          <mxGeometry x="970" y="780" width="540" height="438" as="geometry">
            <mxRectangle x="970" y="780" width="130" height="30" as="alternateBounds" />
          </mxGeometry>
        </mxCell>
        <mxCell id="njrWuHVzc1N4BweSturP-474" value="ID 1" style="swimlane;startSize=20;horizontal=0;childLayout=treeLayout;horizontalTree=1;resizable=1;containerType=tree;fontSize=12;sketch=1;hachureGap=4;jiggle=2;curveFitting=1;strokeColor=default;align=center;verticalAlign=middle;fontFamily=Architects Daughter;fontSource=https%3A%2F%2Ffonts.googleapis.com%2Fcss%3Ffamily%3DArchitects%2BDaughter;fontColor=default;fontStyle=1;fillColor=default;autosize=0;fixedWidth=0;aspect=fixed;" vertex="1" parent="njrWuHVzc1N4BweSturP-253">
          <mxGeometry y="38" width="540" height="260" as="geometry">
            <mxRectangle y="38" width="401.82" height="30" as="alternateBounds" />
          </mxGeometry>
        </mxCell>
        <mxCell id="njrWuHVzc1N4BweSturP-1039" value="skb" style="swimlane;whiteSpace=wrap;html=1;sketch=1;hachureGap=4;jiggle=2;curveFitting=1;fontFamily=Architects Daughter;fontSource=https%3A%2F%2Ffonts.googleapis.com%2Fcss%3Ffamily%3DArchitects%2BDaughter;resizable=1;strokeColor=default;align=center;verticalAlign=middle;fontSize=12;fontColor=default;fontStyle=1;fillColor=default;startSize=30;" vertex="1" parent="njrWuHVzc1N4BweSturP-474">
          <mxGeometry x="40" y="20" width="220" height="220" as="geometry">
            <mxRectangle x="40" y="20" width="80" height="30" as="alternateBounds" />
          </mxGeometry>
        </mxCell>
        <mxCell id="njrWuHVzc1N4BweSturP-1040" value="txhdr" style="rounded=0;whiteSpace=wrap;html=1;sketch=1;hachureGap=4;jiggle=2;curveFitting=1;fontFamily=Architects Daughter;fontSource=https%3A%2F%2Ffonts.googleapis.com%2Fcss%3Ffamily%3DArchitects%2BDaughter;strokeColor=default;align=center;verticalAlign=middle;fontSize=12;fontColor=default;fontStyle=1;fillColor=default;" vertex="1" parent="njrWuHVzc1N4BweSturP-1039">
          <mxGeometry y="30" width="120" height="30" as="geometry" />
        </mxCell>
        <mxCell id="njrWuHVzc1N4BweSturP-1041" value="pkts" style="rounded=0;whiteSpace=wrap;html=1;sketch=1;hachureGap=4;jiggle=2;curveFitting=1;fontFamily=Architects Daughter;fontSource=https%3A%2F%2Ffonts.googleapis.com%2Fcss%3Ffamily%3DArchitects%2BDaughter;strokeColor=default;align=center;verticalAlign=middle;fontSize=12;fontColor=default;fontStyle=1;fillColor=default;" vertex="1" parent="njrWuHVzc1N4BweSturP-1039">
          <mxGeometry x="140" y="30" width="80" height="30" as="geometry" />
        </mxCell>
        <mxCell id="njrWuHVzc1N4BweSturP-1042" style="edgeStyle=orthogonalEdgeStyle;rounded=0;sketch=1;hachureGap=4;jiggle=2;curveFitting=1;orthogonalLoop=1;jettySize=auto;html=1;exitX=0.5;exitY=1;exitDx=0;exitDy=0;entryX=0.5;entryY=0;entryDx=0;entryDy=0;fontFamily=Architects Daughter;fontSource=https%3A%2F%2Ffonts.googleapis.com%2Fcss%3Ffamily%3DArchitects%2BDaughter;fontSize=12;fontColor=default;fontStyle=1;curved=1;" edge="1" parent="njrWuHVzc1N4BweSturP-1039" source="njrWuHVzc1N4BweSturP-1043" target="njrWuHVzc1N4BweSturP-1046">
          <mxGeometry relative="1" as="geometry" />
        </mxCell>
        <mxCell id="njrWuHVzc1N4BweSturP-1043" value="*sw_hdr" style="rounded=0;whiteSpace=wrap;html=1;sketch=1;hachureGap=4;jiggle=2;curveFitting=1;fontFamily=Architects Daughter;fontSource=https%3A%2F%2Ffonts.googleapis.com%2Fcss%3Ffamily%3DArchitects%2BDaughter;strokeColor=default;align=center;verticalAlign=middle;fontSize=12;fontColor=default;fontStyle=1;fillColor=default;" vertex="1" parent="njrWuHVzc1N4BweSturP-1039">
          <mxGeometry y="60" width="60" height="20" as="geometry" />
        </mxCell>
        <mxCell id="njrWuHVzc1N4BweSturP-1044" value="hw_hdr" style="rounded=0;whiteSpace=wrap;html=1;sketch=1;hachureGap=4;jiggle=2;curveFitting=1;fontFamily=Architects Daughter;fontSource=https%3A%2F%2Ffonts.googleapis.com%2Fcss%3Ffamily%3DArchitects%2BDaughter;strokeColor=default;align=center;verticalAlign=middle;fontSize=12;fontColor=default;fontStyle=1;fillColor=default;" vertex="1" parent="njrWuHVzc1N4BweSturP-1039">
          <mxGeometry x="60" y="60" width="60" height="20" as="geometry" />
        </mxCell>
        <mxCell id="njrWuHVzc1N4BweSturP-1045" value="pad" style="rounded=0;whiteSpace=wrap;html=1;sketch=1;hachureGap=4;jiggle=2;curveFitting=1;fontFamily=Architects Daughter;fontSource=https%3A%2F%2Ffonts.googleapis.com%2Fcss%3Ffamily%3DArchitects%2BDaughter;strokeColor=default;align=center;verticalAlign=middle;fontSize=12;fontColor=default;fontStyle=1;fillColor=default;" vertex="1" parent="njrWuHVzc1N4BweSturP-1039">
          <mxGeometry x="120" y="30" width="20" height="30" as="geometry" />
        </mxCell>
        <mxCell id="njrWuHVzc1N4BweSturP-1046" value="&amp;nbsp; &amp;nbsp;sw_hdr" style="swimlane;fontStyle=0;childLayout=stackLayout;horizontal=1;startSize=20;fillColor=none;horizontalStack=0;resizeParent=1;resizeParentMax=0;resizeLast=0;collapsible=1;marginBottom=0;html=1;sketch=1;hachureGap=4;jiggle=2;curveFitting=1;strokeColor=default;align=center;verticalAlign=middle;fontFamily=Architects Daughter;fontSource=https%3A%2F%2Ffonts.googleapis.com%2Fcss%3Ffamily%3DArchitects%2BDaughter;fontSize=12;fontColor=default;" vertex="1" parent="njrWuHVzc1N4BweSturP-1039">
          <mxGeometry x="31.25" y="105" width="57.5" height="104" as="geometry">
            <mxRectangle x="32.5" y="140" width="57.5" height="20" as="alternateBounds" />
          </mxGeometry>
        </mxCell>
        <mxCell id="njrWuHVzc1N4BweSturP-1047" value="sta" style="text;strokeColor=none;fillColor=none;align=left;verticalAlign=top;spacingLeft=4;spacingRight=4;overflow=hidden;rotatable=0;points=[[0,0.5],[1,0.5]];portConstraint=eastwest;whiteSpace=wrap;html=1;fontFamily=Architects Daughter;fontSource=https%3A%2F%2Ffonts.googleapis.com%2Fcss%3Ffamily%3DArchitects%2BDaughter;fontSize=12;fontColor=default;fontStyle=1;" vertex="1" parent="njrWuHVzc1N4BweSturP-1046">
          <mxGeometry y="20" width="57.5" height="24" as="geometry" />
        </mxCell>
        <mxCell id="njrWuHVzc1N4BweSturP-1048" value="vif" style="text;strokeColor=none;fillColor=none;align=left;verticalAlign=top;spacingLeft=4;spacingRight=4;overflow=hidden;rotatable=0;points=[[0,0.5],[1,0.5]];portConstraint=eastwest;whiteSpace=wrap;html=1;fontFamily=Architects Daughter;fontSource=https%3A%2F%2Ffonts.googleapis.com%2Fcss%3Ffamily%3DArchitects%2BDaughter;fontSize=12;fontColor=default;fontStyle=1;" vertex="1" parent="njrWuHVzc1N4BweSturP-1046">
          <mxGeometry y="44" width="57.5" height="20" as="geometry" />
        </mxCell>
        <mxCell id="njrWuHVzc1N4BweSturP-1049" value=". . ." style="text;strokeColor=none;fillColor=none;align=left;verticalAlign=top;spacingLeft=4;spacingRight=4;overflow=hidden;rotatable=0;points=[[0,0.5],[1,0.5]];portConstraint=eastwest;whiteSpace=wrap;html=1;fontFamily=Architects Daughter;fontSource=https%3A%2F%2Ffonts.googleapis.com%2Fcss%3Ffamily%3DArchitects%2BDaughter;fontSize=12;fontColor=default;fontStyle=1;" vertex="1" parent="njrWuHVzc1N4BweSturP-1046">
          <mxGeometry y="64" width="57.5" height="20" as="geometry" />
        </mxCell>
        <mxCell id="njrWuHVzc1N4BweSturP-1050" value="hwq" style="text;strokeColor=default;fillColor=none;align=left;verticalAlign=top;spacingLeft=4;spacingRight=4;overflow=hidden;rotatable=0;points=[[0,0.5],[1,0.5]];portConstraint=eastwest;whiteSpace=wrap;html=1;fontFamily=Architects Daughter;fontSource=https%3A%2F%2Ffonts.googleapis.com%2Fcss%3Ffamily%3DArchitects%2BDaughter;fontSize=12;fontColor=default;fontStyle=1;" vertex="1" parent="njrWuHVzc1N4BweSturP-1046">
          <mxGeometry y="84" width="57.5" height="20" as="geometry" />
        </mxCell>
        <mxCell id="njrWuHVzc1N4BweSturP-1051" value="&amp;nbsp; &amp;nbsp;sw_hdr" style="swimlane;fontStyle=0;childLayout=stackLayout;horizontal=1;startSize=20;fillColor=none;horizontalStack=0;resizeParent=1;resizeParentMax=0;resizeLast=0;collapsible=1;marginBottom=0;html=1;sketch=1;hachureGap=4;jiggle=2;curveFitting=1;strokeColor=default;align=center;verticalAlign=middle;fontFamily=Architects Daughter;fontSource=https%3A%2F%2Ffonts.googleapis.com%2Fcss%3Ffamily%3DArchitects%2BDaughter;fontSize=12;fontColor=default;" vertex="1" parent="njrWuHVzc1N4BweSturP-1039">
          <mxGeometry x="140" y="105" width="57.5" height="104" as="geometry">
            <mxRectangle x="32.5" y="140" width="57.5" height="20" as="alternateBounds" />
          </mxGeometry>
        </mxCell>
        <mxCell id="njrWuHVzc1N4BweSturP-1052" value="AC_BK" style="text;strokeColor=default;fillColor=none;align=left;verticalAlign=top;spacingLeft=4;spacingRight=4;overflow=hidden;rotatable=0;points=[[0,0.5],[1,0.5]];portConstraint=eastwest;whiteSpace=wrap;html=1;fontFamily=Architects Daughter;fontSource=https%3A%2F%2Ffonts.googleapis.com%2Fcss%3Ffamily%3DArchitects%2BDaughter;fontSize=12;fontColor=default;fontStyle=1;" vertex="1" parent="njrWuHVzc1N4BweSturP-1051">
          <mxGeometry y="20" width="57.5" height="24" as="geometry" />
        </mxCell>
        <mxCell id="njrWuHVzc1N4BweSturP-1053" value="AC_BE" style="text;strokeColor=default;fillColor=none;align=left;verticalAlign=top;spacingLeft=4;spacingRight=4;overflow=hidden;rotatable=0;points=[[0,0.5],[1,0.5]];portConstraint=eastwest;whiteSpace=wrap;html=1;fontFamily=Architects Daughter;fontSource=https%3A%2F%2Ffonts.googleapis.com%2Fcss%3Ffamily%3DArchitects%2BDaughter;fontSize=12;fontColor=default;fontStyle=1;" vertex="1" parent="njrWuHVzc1N4BweSturP-1051">
          <mxGeometry y="44" width="57.5" height="20" as="geometry" />
        </mxCell>
        <mxCell id="njrWuHVzc1N4BweSturP-1054" value="AC_VI" style="text;strokeColor=none;fillColor=none;align=left;verticalAlign=top;spacingLeft=4;spacingRight=4;overflow=hidden;rotatable=0;points=[[0,0.5],[1,0.5]];portConstraint=eastwest;whiteSpace=wrap;html=1;fontFamily=Architects Daughter;fontSource=https%3A%2F%2Ffonts.googleapis.com%2Fcss%3Ffamily%3DArchitects%2BDaughter;fontSize=12;fontColor=default;fontStyle=1;" vertex="1" parent="njrWuHVzc1N4BweSturP-1051">
          <mxGeometry y="64" width="57.5" height="20" as="geometry" />
        </mxCell>
        <mxCell id="njrWuHVzc1N4BweSturP-1055" value="AC_VO" style="text;strokeColor=default;fillColor=none;align=left;verticalAlign=top;spacingLeft=4;spacingRight=4;overflow=hidden;rotatable=0;points=[[0,0.5],[1,0.5]];portConstraint=eastwest;whiteSpace=wrap;html=1;fontFamily=Architects Daughter;fontSource=https%3A%2F%2Ffonts.googleapis.com%2Fcss%3Ffamily%3DArchitects%2BDaughter;fontSize=12;fontColor=default;fontStyle=1;" vertex="1" parent="njrWuHVzc1N4BweSturP-1051">
          <mxGeometry y="84" width="57.5" height="20" as="geometry" />
        </mxCell>
        <mxCell id="njrWuHVzc1N4BweSturP-1056" style="edgeStyle=orthogonalEdgeStyle;rounded=0;sketch=1;hachureGap=4;jiggle=2;curveFitting=1;orthogonalLoop=1;jettySize=auto;html=1;exitX=1;exitY=0.5;exitDx=0;exitDy=0;fontFamily=Architects Daughter;fontSource=https%3A%2F%2Ffonts.googleapis.com%2Fcss%3Ffamily%3DArchitects%2BDaughter;fontSize=12;fontColor=default;fontStyle=1;curved=1;" edge="1" parent="njrWuHVzc1N4BweSturP-1039" source="njrWuHVzc1N4BweSturP-1050" target="njrWuHVzc1N4BweSturP-1051">
          <mxGeometry relative="1" as="geometry" />
        </mxCell>
        <mxCell id="njrWuHVzc1N4BweSturP-1057" value="" style="edgeStyle=orthogonalEdgeStyle;rounded=0;sketch=1;hachureGap=4;jiggle=2;curveFitting=1;orthogonalLoop=1;jettySize=auto;html=1;" edge="1" source="njrWuHVzc1N4BweSturP-1039" target="njrWuHVzc1N4BweSturP-1058" parent="njrWuHVzc1N4BweSturP-474">
          <mxGeometry relative="1" as="geometry" />
        </mxCell>
        <mxCell id="njrWuHVzc1N4BweSturP-1058" value="skb" style="swimlane;whiteSpace=wrap;html=1;sketch=1;hachureGap=4;jiggle=2;curveFitting=1;fontFamily=Architects Daughter;fontSource=https%3A%2F%2Ffonts.googleapis.com%2Fcss%3Ffamily%3DArchitects%2BDaughter;resizable=1;strokeColor=default;align=center;verticalAlign=middle;fontSize=12;fontColor=default;fontStyle=1;fillColor=default;startSize=30;" vertex="1" collapsed="1" parent="njrWuHVzc1N4BweSturP-474">
          <mxGeometry x="310" y="115" width="80" height="30" as="geometry">
            <mxRectangle x="41.81999999999982" y="20" width="220" height="220" as="alternateBounds" />
          </mxGeometry>
        </mxCell>
        <mxCell id="njrWuHVzc1N4BweSturP-1059" value="txhdr" style="rounded=0;whiteSpace=wrap;html=1;sketch=1;hachureGap=4;jiggle=2;curveFitting=1;fontFamily=Architects Daughter;fontSource=https%3A%2F%2Ffonts.googleapis.com%2Fcss%3Ffamily%3DArchitects%2BDaughter;strokeColor=default;align=center;verticalAlign=middle;fontSize=12;fontColor=default;fontStyle=1;fillColor=default;" vertex="1" parent="njrWuHVzc1N4BweSturP-1058">
          <mxGeometry y="30" width="120" height="30" as="geometry" />
        </mxCell>
        <mxCell id="njrWuHVzc1N4BweSturP-1060" value="pkts" style="rounded=0;whiteSpace=wrap;html=1;sketch=1;hachureGap=4;jiggle=2;curveFitting=1;fontFamily=Architects Daughter;fontSource=https%3A%2F%2Ffonts.googleapis.com%2Fcss%3Ffamily%3DArchitects%2BDaughter;strokeColor=default;align=center;verticalAlign=middle;fontSize=12;fontColor=default;fontStyle=1;fillColor=default;" vertex="1" parent="njrWuHVzc1N4BweSturP-1058">
          <mxGeometry x="140" y="30" width="80" height="30" as="geometry" />
        </mxCell>
        <mxCell id="njrWuHVzc1N4BweSturP-1061" style="edgeStyle=orthogonalEdgeStyle;rounded=0;sketch=1;hachureGap=4;jiggle=2;curveFitting=1;orthogonalLoop=1;jettySize=auto;html=1;exitX=0.5;exitY=1;exitDx=0;exitDy=0;entryX=0.5;entryY=0;entryDx=0;entryDy=0;fontFamily=Architects Daughter;fontSource=https%3A%2F%2Ffonts.googleapis.com%2Fcss%3Ffamily%3DArchitects%2BDaughter;fontSize=12;fontColor=default;fontStyle=1;curved=1;" edge="1" parent="njrWuHVzc1N4BweSturP-1058" source="njrWuHVzc1N4BweSturP-1062" target="njrWuHVzc1N4BweSturP-1065">
          <mxGeometry relative="1" as="geometry" />
        </mxCell>
        <mxCell id="njrWuHVzc1N4BweSturP-1062" value="*sw_hdr" style="rounded=0;whiteSpace=wrap;html=1;sketch=1;hachureGap=4;jiggle=2;curveFitting=1;fontFamily=Architects Daughter;fontSource=https%3A%2F%2Ffonts.googleapis.com%2Fcss%3Ffamily%3DArchitects%2BDaughter;strokeColor=default;align=center;verticalAlign=middle;fontSize=12;fontColor=default;fontStyle=1;fillColor=default;" vertex="1" parent="njrWuHVzc1N4BweSturP-1058">
          <mxGeometry y="60" width="60" height="20" as="geometry" />
        </mxCell>
        <mxCell id="njrWuHVzc1N4BweSturP-1063" value="hw_hdr" style="rounded=0;whiteSpace=wrap;html=1;sketch=1;hachureGap=4;jiggle=2;curveFitting=1;fontFamily=Architects Daughter;fontSource=https%3A%2F%2Ffonts.googleapis.com%2Fcss%3Ffamily%3DArchitects%2BDaughter;strokeColor=default;align=center;verticalAlign=middle;fontSize=12;fontColor=default;fontStyle=1;fillColor=default;" vertex="1" parent="njrWuHVzc1N4BweSturP-1058">
          <mxGeometry x="60" y="60" width="60" height="20" as="geometry" />
        </mxCell>
        <mxCell id="njrWuHVzc1N4BweSturP-1064" value="pad" style="rounded=0;whiteSpace=wrap;html=1;sketch=1;hachureGap=4;jiggle=2;curveFitting=1;fontFamily=Architects Daughter;fontSource=https%3A%2F%2Ffonts.googleapis.com%2Fcss%3Ffamily%3DArchitects%2BDaughter;strokeColor=default;align=center;verticalAlign=middle;fontSize=12;fontColor=default;fontStyle=1;fillColor=default;" vertex="1" parent="njrWuHVzc1N4BweSturP-1058">
          <mxGeometry x="120" y="30" width="20" height="30" as="geometry" />
        </mxCell>
        <mxCell id="njrWuHVzc1N4BweSturP-1065" value="&amp;nbsp; &amp;nbsp;sw_hdr" style="swimlane;fontStyle=0;childLayout=stackLayout;horizontal=1;startSize=20;fillColor=none;horizontalStack=0;resizeParent=1;resizeParentMax=0;resizeLast=0;collapsible=1;marginBottom=0;html=1;sketch=1;hachureGap=4;jiggle=2;curveFitting=1;strokeColor=default;align=center;verticalAlign=middle;fontFamily=Architects Daughter;fontSource=https%3A%2F%2Ffonts.googleapis.com%2Fcss%3Ffamily%3DArchitects%2BDaughter;fontSize=12;fontColor=default;" vertex="1" parent="njrWuHVzc1N4BweSturP-1058">
          <mxGeometry x="31.25" y="105" width="57.5" height="104" as="geometry">
            <mxRectangle x="32.5" y="140" width="57.5" height="20" as="alternateBounds" />
          </mxGeometry>
        </mxCell>
        <mxCell id="njrWuHVzc1N4BweSturP-1066" value="sta" style="text;strokeColor=none;fillColor=none;align=left;verticalAlign=top;spacingLeft=4;spacingRight=4;overflow=hidden;rotatable=0;points=[[0,0.5],[1,0.5]];portConstraint=eastwest;whiteSpace=wrap;html=1;fontFamily=Architects Daughter;fontSource=https%3A%2F%2Ffonts.googleapis.com%2Fcss%3Ffamily%3DArchitects%2BDaughter;fontSize=12;fontColor=default;fontStyle=1;" vertex="1" parent="njrWuHVzc1N4BweSturP-1065">
          <mxGeometry y="20" width="57.5" height="24" as="geometry" />
        </mxCell>
        <mxCell id="njrWuHVzc1N4BweSturP-1067" value="vif" style="text;strokeColor=none;fillColor=none;align=left;verticalAlign=top;spacingLeft=4;spacingRight=4;overflow=hidden;rotatable=0;points=[[0,0.5],[1,0.5]];portConstraint=eastwest;whiteSpace=wrap;html=1;fontFamily=Architects Daughter;fontSource=https%3A%2F%2Ffonts.googleapis.com%2Fcss%3Ffamily%3DArchitects%2BDaughter;fontSize=12;fontColor=default;fontStyle=1;" vertex="1" parent="njrWuHVzc1N4BweSturP-1065">
          <mxGeometry y="44" width="57.5" height="20" as="geometry" />
        </mxCell>
        <mxCell id="njrWuHVzc1N4BweSturP-1068" value=". . ." style="text;strokeColor=none;fillColor=none;align=left;verticalAlign=top;spacingLeft=4;spacingRight=4;overflow=hidden;rotatable=0;points=[[0,0.5],[1,0.5]];portConstraint=eastwest;whiteSpace=wrap;html=1;fontFamily=Architects Daughter;fontSource=https%3A%2F%2Ffonts.googleapis.com%2Fcss%3Ffamily%3DArchitects%2BDaughter;fontSize=12;fontColor=default;fontStyle=1;" vertex="1" parent="njrWuHVzc1N4BweSturP-1065">
          <mxGeometry y="64" width="57.5" height="20" as="geometry" />
        </mxCell>
        <mxCell id="njrWuHVzc1N4BweSturP-1069" value="hwq" style="text;strokeColor=default;fillColor=none;align=left;verticalAlign=top;spacingLeft=4;spacingRight=4;overflow=hidden;rotatable=0;points=[[0,0.5],[1,0.5]];portConstraint=eastwest;whiteSpace=wrap;html=1;fontFamily=Architects Daughter;fontSource=https%3A%2F%2Ffonts.googleapis.com%2Fcss%3Ffamily%3DArchitects%2BDaughter;fontSize=12;fontColor=default;fontStyle=1;" vertex="1" parent="njrWuHVzc1N4BweSturP-1065">
          <mxGeometry y="84" width="57.5" height="20" as="geometry" />
        </mxCell>
        <mxCell id="njrWuHVzc1N4BweSturP-1070" value="&amp;nbsp; &amp;nbsp;sw_hdr" style="swimlane;fontStyle=0;childLayout=stackLayout;horizontal=1;startSize=20;fillColor=none;horizontalStack=0;resizeParent=1;resizeParentMax=0;resizeLast=0;collapsible=1;marginBottom=0;html=1;sketch=1;hachureGap=4;jiggle=2;curveFitting=1;strokeColor=default;align=center;verticalAlign=middle;fontFamily=Architects Daughter;fontSource=https%3A%2F%2Ffonts.googleapis.com%2Fcss%3Ffamily%3DArchitects%2BDaughter;fontSize=12;fontColor=default;" vertex="1" parent="njrWuHVzc1N4BweSturP-1058">
          <mxGeometry x="140" y="105" width="57.5" height="104" as="geometry">
            <mxRectangle x="32.5" y="140" width="57.5" height="20" as="alternateBounds" />
          </mxGeometry>
        </mxCell>
        <mxCell id="njrWuHVzc1N4BweSturP-1071" value="AC_BK" style="text;strokeColor=default;fillColor=none;align=left;verticalAlign=top;spacingLeft=4;spacingRight=4;overflow=hidden;rotatable=0;points=[[0,0.5],[1,0.5]];portConstraint=eastwest;whiteSpace=wrap;html=1;fontFamily=Architects Daughter;fontSource=https%3A%2F%2Ffonts.googleapis.com%2Fcss%3Ffamily%3DArchitects%2BDaughter;fontSize=12;fontColor=default;fontStyle=1;" vertex="1" parent="njrWuHVzc1N4BweSturP-1070">
          <mxGeometry y="20" width="57.5" height="24" as="geometry" />
        </mxCell>
        <mxCell id="njrWuHVzc1N4BweSturP-1072" value="AC_BE" style="text;strokeColor=default;fillColor=none;align=left;verticalAlign=top;spacingLeft=4;spacingRight=4;overflow=hidden;rotatable=0;points=[[0,0.5],[1,0.5]];portConstraint=eastwest;whiteSpace=wrap;html=1;fontFamily=Architects Daughter;fontSource=https%3A%2F%2Ffonts.googleapis.com%2Fcss%3Ffamily%3DArchitects%2BDaughter;fontSize=12;fontColor=default;fontStyle=1;" vertex="1" parent="njrWuHVzc1N4BweSturP-1070">
          <mxGeometry y="44" width="57.5" height="20" as="geometry" />
        </mxCell>
        <mxCell id="njrWuHVzc1N4BweSturP-1073" value="AC_VI" style="text;strokeColor=none;fillColor=none;align=left;verticalAlign=top;spacingLeft=4;spacingRight=4;overflow=hidden;rotatable=0;points=[[0,0.5],[1,0.5]];portConstraint=eastwest;whiteSpace=wrap;html=1;fontFamily=Architects Daughter;fontSource=https%3A%2F%2Ffonts.googleapis.com%2Fcss%3Ffamily%3DArchitects%2BDaughter;fontSize=12;fontColor=default;fontStyle=1;" vertex="1" parent="njrWuHVzc1N4BweSturP-1070">
          <mxGeometry y="64" width="57.5" height="20" as="geometry" />
        </mxCell>
        <mxCell id="njrWuHVzc1N4BweSturP-1074" value="AC_VO" style="text;strokeColor=default;fillColor=none;align=left;verticalAlign=top;spacingLeft=4;spacingRight=4;overflow=hidden;rotatable=0;points=[[0,0.5],[1,0.5]];portConstraint=eastwest;whiteSpace=wrap;html=1;fontFamily=Architects Daughter;fontSource=https%3A%2F%2Ffonts.googleapis.com%2Fcss%3Ffamily%3DArchitects%2BDaughter;fontSize=12;fontColor=default;fontStyle=1;" vertex="1" parent="njrWuHVzc1N4BweSturP-1070">
          <mxGeometry y="84" width="57.5" height="20" as="geometry" />
        </mxCell>
        <mxCell id="njrWuHVzc1N4BweSturP-1075" style="edgeStyle=orthogonalEdgeStyle;rounded=0;sketch=1;hachureGap=4;jiggle=2;curveFitting=1;orthogonalLoop=1;jettySize=auto;html=1;exitX=1;exitY=0.5;exitDx=0;exitDy=0;fontFamily=Architects Daughter;fontSource=https%3A%2F%2Ffonts.googleapis.com%2Fcss%3Ffamily%3DArchitects%2BDaughter;fontSize=12;fontColor=default;fontStyle=1;curved=1;" edge="1" parent="njrWuHVzc1N4BweSturP-1058" source="njrWuHVzc1N4BweSturP-1069" target="njrWuHVzc1N4BweSturP-1070">
          <mxGeometry relative="1" as="geometry" />
        </mxCell>
        <mxCell id="njrWuHVzc1N4BweSturP-1076" value="" style="edgeStyle=orthogonalEdgeStyle;rounded=0;sketch=1;hachureGap=4;jiggle=2;curveFitting=1;orthogonalLoop=1;jettySize=auto;html=1;" edge="1" target="njrWuHVzc1N4BweSturP-1077" source="njrWuHVzc1N4BweSturP-1058" parent="njrWuHVzc1N4BweSturP-474">
          <mxGeometry relative="1" as="geometry">
            <mxPoint x="1038.1799999999998" y="748" as="sourcePoint" />
          </mxGeometry>
        </mxCell>
        <mxCell id="njrWuHVzc1N4BweSturP-1077" value=". . ." style="swimlane;whiteSpace=wrap;html=1;sketch=1;hachureGap=4;jiggle=2;curveFitting=1;fontFamily=Architects Daughter;fontSource=https%3A%2F%2Ffonts.googleapis.com%2Fcss%3Ffamily%3DArchitects%2BDaughter;resizable=1;strokeColor=default;align=center;verticalAlign=middle;fontSize=12;fontColor=default;fontStyle=1;fillColor=default;startSize=30;" vertex="1" collapsed="1" parent="njrWuHVzc1N4BweSturP-474">
          <mxGeometry x="440" y="115" width="80" height="30" as="geometry">
            <mxRectangle x="300" y="20" width="220" height="220" as="alternateBounds" />
          </mxGeometry>
        </mxCell>
        <mxCell id="njrWuHVzc1N4BweSturP-1078" value="txhdr" style="rounded=0;whiteSpace=wrap;html=1;sketch=1;hachureGap=4;jiggle=2;curveFitting=1;fontFamily=Architects Daughter;fontSource=https%3A%2F%2Ffonts.googleapis.com%2Fcss%3Ffamily%3DArchitects%2BDaughter;strokeColor=default;align=center;verticalAlign=middle;fontSize=12;fontColor=default;fontStyle=1;fillColor=default;" vertex="1" parent="njrWuHVzc1N4BweSturP-1077">
          <mxGeometry y="30" width="120" height="30" as="geometry" />
        </mxCell>
        <mxCell id="njrWuHVzc1N4BweSturP-1079" value="pkts" style="rounded=0;whiteSpace=wrap;html=1;sketch=1;hachureGap=4;jiggle=2;curveFitting=1;fontFamily=Architects Daughter;fontSource=https%3A%2F%2Ffonts.googleapis.com%2Fcss%3Ffamily%3DArchitects%2BDaughter;strokeColor=default;align=center;verticalAlign=middle;fontSize=12;fontColor=default;fontStyle=1;fillColor=default;" vertex="1" parent="njrWuHVzc1N4BweSturP-1077">
          <mxGeometry x="140" y="30" width="80" height="30" as="geometry" />
        </mxCell>
        <mxCell id="njrWuHVzc1N4BweSturP-1080" style="edgeStyle=orthogonalEdgeStyle;rounded=0;sketch=1;hachureGap=4;jiggle=2;curveFitting=1;orthogonalLoop=1;jettySize=auto;html=1;exitX=0.5;exitY=1;exitDx=0;exitDy=0;entryX=0.5;entryY=0;entryDx=0;entryDy=0;fontFamily=Architects Daughter;fontSource=https%3A%2F%2Ffonts.googleapis.com%2Fcss%3Ffamily%3DArchitects%2BDaughter;fontSize=12;fontColor=default;fontStyle=1;curved=1;" edge="1" parent="njrWuHVzc1N4BweSturP-1077" source="njrWuHVzc1N4BweSturP-1081" target="njrWuHVzc1N4BweSturP-1084">
          <mxGeometry relative="1" as="geometry" />
        </mxCell>
        <mxCell id="njrWuHVzc1N4BweSturP-1081" value="*sw_hdr" style="rounded=0;whiteSpace=wrap;html=1;sketch=1;hachureGap=4;jiggle=2;curveFitting=1;fontFamily=Architects Daughter;fontSource=https%3A%2F%2Ffonts.googleapis.com%2Fcss%3Ffamily%3DArchitects%2BDaughter;strokeColor=default;align=center;verticalAlign=middle;fontSize=12;fontColor=default;fontStyle=1;fillColor=default;" vertex="1" parent="njrWuHVzc1N4BweSturP-1077">
          <mxGeometry y="60" width="60" height="20" as="geometry" />
        </mxCell>
        <mxCell id="njrWuHVzc1N4BweSturP-1082" value="hw_hdr" style="rounded=0;whiteSpace=wrap;html=1;sketch=1;hachureGap=4;jiggle=2;curveFitting=1;fontFamily=Architects Daughter;fontSource=https%3A%2F%2Ffonts.googleapis.com%2Fcss%3Ffamily%3DArchitects%2BDaughter;strokeColor=default;align=center;verticalAlign=middle;fontSize=12;fontColor=default;fontStyle=1;fillColor=default;" vertex="1" parent="njrWuHVzc1N4BweSturP-1077">
          <mxGeometry x="60" y="60" width="60" height="20" as="geometry" />
        </mxCell>
        <mxCell id="njrWuHVzc1N4BweSturP-1083" value="pad" style="rounded=0;whiteSpace=wrap;html=1;sketch=1;hachureGap=4;jiggle=2;curveFitting=1;fontFamily=Architects Daughter;fontSource=https%3A%2F%2Ffonts.googleapis.com%2Fcss%3Ffamily%3DArchitects%2BDaughter;strokeColor=default;align=center;verticalAlign=middle;fontSize=12;fontColor=default;fontStyle=1;fillColor=default;" vertex="1" parent="njrWuHVzc1N4BweSturP-1077">
          <mxGeometry x="120" y="30" width="20" height="30" as="geometry" />
        </mxCell>
        <mxCell id="njrWuHVzc1N4BweSturP-1084" value="&amp;nbsp; &amp;nbsp;sw_hdr" style="swimlane;fontStyle=0;childLayout=stackLayout;horizontal=1;startSize=20;fillColor=none;horizontalStack=0;resizeParent=1;resizeParentMax=0;resizeLast=0;collapsible=1;marginBottom=0;html=1;sketch=1;hachureGap=4;jiggle=2;curveFitting=1;strokeColor=default;align=center;verticalAlign=middle;fontFamily=Architects Daughter;fontSource=https%3A%2F%2Ffonts.googleapis.com%2Fcss%3Ffamily%3DArchitects%2BDaughter;fontSize=12;fontColor=default;" vertex="1" parent="njrWuHVzc1N4BweSturP-1077">
          <mxGeometry x="31.25" y="105" width="57.5" height="104" as="geometry">
            <mxRectangle x="32.5" y="140" width="57.5" height="20" as="alternateBounds" />
          </mxGeometry>
        </mxCell>
        <mxCell id="njrWuHVzc1N4BweSturP-1085" value="sta" style="text;strokeColor=none;fillColor=none;align=left;verticalAlign=top;spacingLeft=4;spacingRight=4;overflow=hidden;rotatable=0;points=[[0,0.5],[1,0.5]];portConstraint=eastwest;whiteSpace=wrap;html=1;fontFamily=Architects Daughter;fontSource=https%3A%2F%2Ffonts.googleapis.com%2Fcss%3Ffamily%3DArchitects%2BDaughter;fontSize=12;fontColor=default;fontStyle=1;" vertex="1" parent="njrWuHVzc1N4BweSturP-1084">
          <mxGeometry y="20" width="57.5" height="24" as="geometry" />
        </mxCell>
        <mxCell id="njrWuHVzc1N4BweSturP-1086" value="vif" style="text;strokeColor=none;fillColor=none;align=left;verticalAlign=top;spacingLeft=4;spacingRight=4;overflow=hidden;rotatable=0;points=[[0,0.5],[1,0.5]];portConstraint=eastwest;whiteSpace=wrap;html=1;fontFamily=Architects Daughter;fontSource=https%3A%2F%2Ffonts.googleapis.com%2Fcss%3Ffamily%3DArchitects%2BDaughter;fontSize=12;fontColor=default;fontStyle=1;" vertex="1" parent="njrWuHVzc1N4BweSturP-1084">
          <mxGeometry y="44" width="57.5" height="20" as="geometry" />
        </mxCell>
        <mxCell id="njrWuHVzc1N4BweSturP-1087" value=". . ." style="text;strokeColor=none;fillColor=none;align=left;verticalAlign=top;spacingLeft=4;spacingRight=4;overflow=hidden;rotatable=0;points=[[0,0.5],[1,0.5]];portConstraint=eastwest;whiteSpace=wrap;html=1;fontFamily=Architects Daughter;fontSource=https%3A%2F%2Ffonts.googleapis.com%2Fcss%3Ffamily%3DArchitects%2BDaughter;fontSize=12;fontColor=default;fontStyle=1;" vertex="1" parent="njrWuHVzc1N4BweSturP-1084">
          <mxGeometry y="64" width="57.5" height="20" as="geometry" />
        </mxCell>
        <mxCell id="njrWuHVzc1N4BweSturP-1088" value="hwq" style="text;strokeColor=default;fillColor=none;align=left;verticalAlign=top;spacingLeft=4;spacingRight=4;overflow=hidden;rotatable=0;points=[[0,0.5],[1,0.5]];portConstraint=eastwest;whiteSpace=wrap;html=1;fontFamily=Architects Daughter;fontSource=https%3A%2F%2Ffonts.googleapis.com%2Fcss%3Ffamily%3DArchitects%2BDaughter;fontSize=12;fontColor=default;fontStyle=1;" vertex="1" parent="njrWuHVzc1N4BweSturP-1084">
          <mxGeometry y="84" width="57.5" height="20" as="geometry" />
        </mxCell>
        <mxCell id="njrWuHVzc1N4BweSturP-1089" value="&amp;nbsp; &amp;nbsp;sw_hdr" style="swimlane;fontStyle=0;childLayout=stackLayout;horizontal=1;startSize=20;fillColor=none;horizontalStack=0;resizeParent=1;resizeParentMax=0;resizeLast=0;collapsible=1;marginBottom=0;html=1;sketch=1;hachureGap=4;jiggle=2;curveFitting=1;strokeColor=default;align=center;verticalAlign=middle;fontFamily=Architects Daughter;fontSource=https%3A%2F%2Ffonts.googleapis.com%2Fcss%3Ffamily%3DArchitects%2BDaughter;fontSize=12;fontColor=default;" vertex="1" parent="njrWuHVzc1N4BweSturP-1077">
          <mxGeometry x="140" y="105" width="57.5" height="104" as="geometry">
            <mxRectangle x="32.5" y="140" width="57.5" height="20" as="alternateBounds" />
          </mxGeometry>
        </mxCell>
        <mxCell id="njrWuHVzc1N4BweSturP-1090" value="AC_BK" style="text;strokeColor=default;fillColor=none;align=left;verticalAlign=top;spacingLeft=4;spacingRight=4;overflow=hidden;rotatable=0;points=[[0,0.5],[1,0.5]];portConstraint=eastwest;whiteSpace=wrap;html=1;fontFamily=Architects Daughter;fontSource=https%3A%2F%2Ffonts.googleapis.com%2Fcss%3Ffamily%3DArchitects%2BDaughter;fontSize=12;fontColor=default;fontStyle=1;" vertex="1" parent="njrWuHVzc1N4BweSturP-1089">
          <mxGeometry y="20" width="57.5" height="24" as="geometry" />
        </mxCell>
        <mxCell id="njrWuHVzc1N4BweSturP-1091" value="AC_BE" style="text;strokeColor=default;fillColor=none;align=left;verticalAlign=top;spacingLeft=4;spacingRight=4;overflow=hidden;rotatable=0;points=[[0,0.5],[1,0.5]];portConstraint=eastwest;whiteSpace=wrap;html=1;fontFamily=Architects Daughter;fontSource=https%3A%2F%2Ffonts.googleapis.com%2Fcss%3Ffamily%3DArchitects%2BDaughter;fontSize=12;fontColor=default;fontStyle=1;" vertex="1" parent="njrWuHVzc1N4BweSturP-1089">
          <mxGeometry y="44" width="57.5" height="20" as="geometry" />
        </mxCell>
        <mxCell id="njrWuHVzc1N4BweSturP-1092" value="AC_VI" style="text;strokeColor=none;fillColor=none;align=left;verticalAlign=top;spacingLeft=4;spacingRight=4;overflow=hidden;rotatable=0;points=[[0,0.5],[1,0.5]];portConstraint=eastwest;whiteSpace=wrap;html=1;fontFamily=Architects Daughter;fontSource=https%3A%2F%2Ffonts.googleapis.com%2Fcss%3Ffamily%3DArchitects%2BDaughter;fontSize=12;fontColor=default;fontStyle=1;" vertex="1" parent="njrWuHVzc1N4BweSturP-1089">
          <mxGeometry y="64" width="57.5" height="20" as="geometry" />
        </mxCell>
        <mxCell id="njrWuHVzc1N4BweSturP-1093" value="AC_VO" style="text;strokeColor=default;fillColor=none;align=left;verticalAlign=top;spacingLeft=4;spacingRight=4;overflow=hidden;rotatable=0;points=[[0,0.5],[1,0.5]];portConstraint=eastwest;whiteSpace=wrap;html=1;fontFamily=Architects Daughter;fontSource=https%3A%2F%2Ffonts.googleapis.com%2Fcss%3Ffamily%3DArchitects%2BDaughter;fontSize=12;fontColor=default;fontStyle=1;" vertex="1" parent="njrWuHVzc1N4BweSturP-1089">
          <mxGeometry y="84" width="57.5" height="20" as="geometry" />
        </mxCell>
        <mxCell id="njrWuHVzc1N4BweSturP-1094" style="edgeStyle=orthogonalEdgeStyle;rounded=0;sketch=1;hachureGap=4;jiggle=2;curveFitting=1;orthogonalLoop=1;jettySize=auto;html=1;exitX=1;exitY=0.5;exitDx=0;exitDy=0;fontFamily=Architects Daughter;fontSource=https%3A%2F%2Ffonts.googleapis.com%2Fcss%3Ffamily%3DArchitects%2BDaughter;fontSize=12;fontColor=default;fontStyle=1;curved=1;" edge="1" parent="njrWuHVzc1N4BweSturP-1077" source="njrWuHVzc1N4BweSturP-1088" target="njrWuHVzc1N4BweSturP-1089">
          <mxGeometry relative="1" as="geometry" />
        </mxCell>
        <mxCell id="njrWuHVzc1N4BweSturP-584" value="ID 2" style="swimlane;startSize=20;horizontal=0;childLayout=treeLayout;horizontalTree=1;resizable=1;containerType=tree;fontSize=12;sketch=1;hachureGap=4;jiggle=2;curveFitting=1;strokeColor=default;align=center;verticalAlign=middle;fontFamily=Architects Daughter;fontSource=https%3A%2F%2Ffonts.googleapis.com%2Fcss%3Ffamily%3DArchitects%2BDaughter;fontColor=default;fontStyle=1;fillColor=default;autosize=0;fixedWidth=0;" vertex="1" parent="njrWuHVzc1N4BweSturP-253">
          <mxGeometry y="298" width="400" height="70" as="geometry">
            <mxRectangle y="20" width="640" height="30" as="alternateBounds" />
          </mxGeometry>
        </mxCell>
        <mxCell id="njrWuHVzc1N4BweSturP-1149" value="skb" style="swimlane;whiteSpace=wrap;html=1;sketch=1;hachureGap=4;jiggle=2;curveFitting=1;fontFamily=Architects Daughter;fontSource=https%3A%2F%2Ffonts.googleapis.com%2Fcss%3Ffamily%3DArchitects%2BDaughter;resizable=1;strokeColor=default;align=center;verticalAlign=middle;fontSize=12;fontColor=default;fontStyle=1;fillColor=default;startSize=30;" vertex="1" collapsed="1" parent="njrWuHVzc1N4BweSturP-584">
          <mxGeometry x="40" y="20" width="80" height="30" as="geometry">
            <mxRectangle x="40" y="20" width="220" height="220" as="alternateBounds" />
          </mxGeometry>
        </mxCell>
        <mxCell id="njrWuHVzc1N4BweSturP-1150" value="txhdr" style="rounded=0;whiteSpace=wrap;html=1;sketch=1;hachureGap=4;jiggle=2;curveFitting=1;fontFamily=Architects Daughter;fontSource=https%3A%2F%2Ffonts.googleapis.com%2Fcss%3Ffamily%3DArchitects%2BDaughter;strokeColor=default;align=center;verticalAlign=middle;fontSize=12;fontColor=default;fontStyle=1;fillColor=default;" vertex="1" parent="njrWuHVzc1N4BweSturP-1149">
          <mxGeometry y="30" width="120" height="30" as="geometry" />
        </mxCell>
        <mxCell id="njrWuHVzc1N4BweSturP-1151" value="pkts" style="rounded=0;whiteSpace=wrap;html=1;sketch=1;hachureGap=4;jiggle=2;curveFitting=1;fontFamily=Architects Daughter;fontSource=https%3A%2F%2Ffonts.googleapis.com%2Fcss%3Ffamily%3DArchitects%2BDaughter;strokeColor=default;align=center;verticalAlign=middle;fontSize=12;fontColor=default;fontStyle=1;fillColor=default;" vertex="1" parent="njrWuHVzc1N4BweSturP-1149">
          <mxGeometry x="140" y="30" width="80" height="30" as="geometry" />
        </mxCell>
        <mxCell id="njrWuHVzc1N4BweSturP-1152" style="edgeStyle=orthogonalEdgeStyle;rounded=0;sketch=1;hachureGap=4;jiggle=2;curveFitting=1;orthogonalLoop=1;jettySize=auto;html=1;exitX=0.5;exitY=1;exitDx=0;exitDy=0;entryX=0.5;entryY=0;entryDx=0;entryDy=0;fontFamily=Architects Daughter;fontSource=https%3A%2F%2Ffonts.googleapis.com%2Fcss%3Ffamily%3DArchitects%2BDaughter;fontSize=12;fontColor=default;fontStyle=1;curved=1;" edge="1" parent="njrWuHVzc1N4BweSturP-1149" source="njrWuHVzc1N4BweSturP-1153" target="njrWuHVzc1N4BweSturP-1156">
          <mxGeometry relative="1" as="geometry" />
        </mxCell>
        <mxCell id="njrWuHVzc1N4BweSturP-1153" value="*sw_hdr" style="rounded=0;whiteSpace=wrap;html=1;sketch=1;hachureGap=4;jiggle=2;curveFitting=1;fontFamily=Architects Daughter;fontSource=https%3A%2F%2Ffonts.googleapis.com%2Fcss%3Ffamily%3DArchitects%2BDaughter;strokeColor=default;align=center;verticalAlign=middle;fontSize=12;fontColor=default;fontStyle=1;fillColor=default;" vertex="1" parent="njrWuHVzc1N4BweSturP-1149">
          <mxGeometry y="60" width="60" height="20" as="geometry" />
        </mxCell>
        <mxCell id="njrWuHVzc1N4BweSturP-1154" value="hw_hdr" style="rounded=0;whiteSpace=wrap;html=1;sketch=1;hachureGap=4;jiggle=2;curveFitting=1;fontFamily=Architects Daughter;fontSource=https%3A%2F%2Ffonts.googleapis.com%2Fcss%3Ffamily%3DArchitects%2BDaughter;strokeColor=default;align=center;verticalAlign=middle;fontSize=12;fontColor=default;fontStyle=1;fillColor=default;" vertex="1" parent="njrWuHVzc1N4BweSturP-1149">
          <mxGeometry x="60" y="60" width="60" height="20" as="geometry" />
        </mxCell>
        <mxCell id="njrWuHVzc1N4BweSturP-1155" value="pad" style="rounded=0;whiteSpace=wrap;html=1;sketch=1;hachureGap=4;jiggle=2;curveFitting=1;fontFamily=Architects Daughter;fontSource=https%3A%2F%2Ffonts.googleapis.com%2Fcss%3Ffamily%3DArchitects%2BDaughter;strokeColor=default;align=center;verticalAlign=middle;fontSize=12;fontColor=default;fontStyle=1;fillColor=default;" vertex="1" parent="njrWuHVzc1N4BweSturP-1149">
          <mxGeometry x="120" y="30" width="20" height="30" as="geometry" />
        </mxCell>
        <mxCell id="njrWuHVzc1N4BweSturP-1156" value="&amp;nbsp; &amp;nbsp;sw_hdr" style="swimlane;fontStyle=0;childLayout=stackLayout;horizontal=1;startSize=20;fillColor=none;horizontalStack=0;resizeParent=1;resizeParentMax=0;resizeLast=0;collapsible=1;marginBottom=0;html=1;sketch=1;hachureGap=4;jiggle=2;curveFitting=1;strokeColor=default;align=center;verticalAlign=middle;fontFamily=Architects Daughter;fontSource=https%3A%2F%2Ffonts.googleapis.com%2Fcss%3Ffamily%3DArchitects%2BDaughter;fontSize=12;fontColor=default;" vertex="1" parent="njrWuHVzc1N4BweSturP-1149">
          <mxGeometry x="31.25" y="105" width="57.5" height="104" as="geometry">
            <mxRectangle x="32.5" y="140" width="57.5" height="20" as="alternateBounds" />
          </mxGeometry>
        </mxCell>
        <mxCell id="njrWuHVzc1N4BweSturP-1157" value="sta" style="text;strokeColor=none;fillColor=none;align=left;verticalAlign=top;spacingLeft=4;spacingRight=4;overflow=hidden;rotatable=0;points=[[0,0.5],[1,0.5]];portConstraint=eastwest;whiteSpace=wrap;html=1;fontFamily=Architects Daughter;fontSource=https%3A%2F%2Ffonts.googleapis.com%2Fcss%3Ffamily%3DArchitects%2BDaughter;fontSize=12;fontColor=default;fontStyle=1;" vertex="1" parent="njrWuHVzc1N4BweSturP-1156">
          <mxGeometry y="20" width="57.5" height="24" as="geometry" />
        </mxCell>
        <mxCell id="njrWuHVzc1N4BweSturP-1158" value="vif" style="text;strokeColor=none;fillColor=none;align=left;verticalAlign=top;spacingLeft=4;spacingRight=4;overflow=hidden;rotatable=0;points=[[0,0.5],[1,0.5]];portConstraint=eastwest;whiteSpace=wrap;html=1;fontFamily=Architects Daughter;fontSource=https%3A%2F%2Ffonts.googleapis.com%2Fcss%3Ffamily%3DArchitects%2BDaughter;fontSize=12;fontColor=default;fontStyle=1;" vertex="1" parent="njrWuHVzc1N4BweSturP-1156">
          <mxGeometry y="44" width="57.5" height="20" as="geometry" />
        </mxCell>
        <mxCell id="njrWuHVzc1N4BweSturP-1159" value=". . ." style="text;strokeColor=none;fillColor=none;align=left;verticalAlign=top;spacingLeft=4;spacingRight=4;overflow=hidden;rotatable=0;points=[[0,0.5],[1,0.5]];portConstraint=eastwest;whiteSpace=wrap;html=1;fontFamily=Architects Daughter;fontSource=https%3A%2F%2Ffonts.googleapis.com%2Fcss%3Ffamily%3DArchitects%2BDaughter;fontSize=12;fontColor=default;fontStyle=1;" vertex="1" parent="njrWuHVzc1N4BweSturP-1156">
          <mxGeometry y="64" width="57.5" height="20" as="geometry" />
        </mxCell>
        <mxCell id="njrWuHVzc1N4BweSturP-1160" value="hwq" style="text;strokeColor=default;fillColor=none;align=left;verticalAlign=top;spacingLeft=4;spacingRight=4;overflow=hidden;rotatable=0;points=[[0,0.5],[1,0.5]];portConstraint=eastwest;whiteSpace=wrap;html=1;fontFamily=Architects Daughter;fontSource=https%3A%2F%2Ffonts.googleapis.com%2Fcss%3Ffamily%3DArchitects%2BDaughter;fontSize=12;fontColor=default;fontStyle=1;" vertex="1" parent="njrWuHVzc1N4BweSturP-1156">
          <mxGeometry y="84" width="57.5" height="20" as="geometry" />
        </mxCell>
        <mxCell id="njrWuHVzc1N4BweSturP-1161" value="&amp;nbsp; &amp;nbsp;sw_hdr" style="swimlane;fontStyle=0;childLayout=stackLayout;horizontal=1;startSize=20;fillColor=none;horizontalStack=0;resizeParent=1;resizeParentMax=0;resizeLast=0;collapsible=1;marginBottom=0;html=1;sketch=1;hachureGap=4;jiggle=2;curveFitting=1;strokeColor=default;align=center;verticalAlign=middle;fontFamily=Architects Daughter;fontSource=https%3A%2F%2Ffonts.googleapis.com%2Fcss%3Ffamily%3DArchitects%2BDaughter;fontSize=12;fontColor=default;" vertex="1" parent="njrWuHVzc1N4BweSturP-1149">
          <mxGeometry x="140" y="105" width="57.5" height="104" as="geometry">
            <mxRectangle x="32.5" y="140" width="57.5" height="20" as="alternateBounds" />
          </mxGeometry>
        </mxCell>
        <mxCell id="njrWuHVzc1N4BweSturP-1162" value="AC_BK" style="text;strokeColor=default;fillColor=none;align=left;verticalAlign=top;spacingLeft=4;spacingRight=4;overflow=hidden;rotatable=0;points=[[0,0.5],[1,0.5]];portConstraint=eastwest;whiteSpace=wrap;html=1;fontFamily=Architects Daughter;fontSource=https%3A%2F%2Ffonts.googleapis.com%2Fcss%3Ffamily%3DArchitects%2BDaughter;fontSize=12;fontColor=default;fontStyle=1;" vertex="1" parent="njrWuHVzc1N4BweSturP-1161">
          <mxGeometry y="20" width="57.5" height="24" as="geometry" />
        </mxCell>
        <mxCell id="njrWuHVzc1N4BweSturP-1163" value="AC_BE" style="text;strokeColor=default;fillColor=none;align=left;verticalAlign=top;spacingLeft=4;spacingRight=4;overflow=hidden;rotatable=0;points=[[0,0.5],[1,0.5]];portConstraint=eastwest;whiteSpace=wrap;html=1;fontFamily=Architects Daughter;fontSource=https%3A%2F%2Ffonts.googleapis.com%2Fcss%3Ffamily%3DArchitects%2BDaughter;fontSize=12;fontColor=default;fontStyle=1;" vertex="1" parent="njrWuHVzc1N4BweSturP-1161">
          <mxGeometry y="44" width="57.5" height="20" as="geometry" />
        </mxCell>
        <mxCell id="njrWuHVzc1N4BweSturP-1164" value="AC_VI" style="text;strokeColor=none;fillColor=none;align=left;verticalAlign=top;spacingLeft=4;spacingRight=4;overflow=hidden;rotatable=0;points=[[0,0.5],[1,0.5]];portConstraint=eastwest;whiteSpace=wrap;html=1;fontFamily=Architects Daughter;fontSource=https%3A%2F%2Ffonts.googleapis.com%2Fcss%3Ffamily%3DArchitects%2BDaughter;fontSize=12;fontColor=default;fontStyle=1;" vertex="1" parent="njrWuHVzc1N4BweSturP-1161">
          <mxGeometry y="64" width="57.5" height="20" as="geometry" />
        </mxCell>
        <mxCell id="njrWuHVzc1N4BweSturP-1165" value="AC_VO" style="text;strokeColor=default;fillColor=none;align=left;verticalAlign=top;spacingLeft=4;spacingRight=4;overflow=hidden;rotatable=0;points=[[0,0.5],[1,0.5]];portConstraint=eastwest;whiteSpace=wrap;html=1;fontFamily=Architects Daughter;fontSource=https%3A%2F%2Ffonts.googleapis.com%2Fcss%3Ffamily%3DArchitects%2BDaughter;fontSize=12;fontColor=default;fontStyle=1;" vertex="1" parent="njrWuHVzc1N4BweSturP-1161">
          <mxGeometry y="84" width="57.5" height="20" as="geometry" />
        </mxCell>
        <mxCell id="njrWuHVzc1N4BweSturP-1166" style="edgeStyle=orthogonalEdgeStyle;rounded=0;sketch=1;hachureGap=4;jiggle=2;curveFitting=1;orthogonalLoop=1;jettySize=auto;html=1;exitX=1;exitY=0.5;exitDx=0;exitDy=0;fontFamily=Architects Daughter;fontSource=https%3A%2F%2Ffonts.googleapis.com%2Fcss%3Ffamily%3DArchitects%2BDaughter;fontSize=12;fontColor=default;fontStyle=1;curved=1;" edge="1" parent="njrWuHVzc1N4BweSturP-1149" source="njrWuHVzc1N4BweSturP-1160" target="njrWuHVzc1N4BweSturP-1161">
          <mxGeometry relative="1" as="geometry" />
        </mxCell>
        <mxCell id="njrWuHVzc1N4BweSturP-1167" value="" style="edgeStyle=orthogonalEdgeStyle;rounded=0;sketch=1;hachureGap=4;jiggle=2;curveFitting=1;orthogonalLoop=1;jettySize=auto;html=1;" edge="1" parent="njrWuHVzc1N4BweSturP-584" source="njrWuHVzc1N4BweSturP-1149" target="njrWuHVzc1N4BweSturP-1168">
          <mxGeometry relative="1" as="geometry" />
        </mxCell>
        <mxCell id="njrWuHVzc1N4BweSturP-1168" value="skb" style="swimlane;whiteSpace=wrap;html=1;sketch=1;hachureGap=4;jiggle=2;curveFitting=1;fontFamily=Architects Daughter;fontSource=https%3A%2F%2Ffonts.googleapis.com%2Fcss%3Ffamily%3DArchitects%2BDaughter;resizable=1;strokeColor=default;align=center;verticalAlign=middle;fontSize=12;fontColor=default;fontStyle=1;fillColor=default;startSize=30;" vertex="1" collapsed="1" parent="njrWuHVzc1N4BweSturP-584">
          <mxGeometry x="170" y="20" width="80" height="30" as="geometry">
            <mxRectangle x="41.81999999999982" y="20" width="220" height="220" as="alternateBounds" />
          </mxGeometry>
        </mxCell>
        <mxCell id="njrWuHVzc1N4BweSturP-1169" value="txhdr" style="rounded=0;whiteSpace=wrap;html=1;sketch=1;hachureGap=4;jiggle=2;curveFitting=1;fontFamily=Architects Daughter;fontSource=https%3A%2F%2Ffonts.googleapis.com%2Fcss%3Ffamily%3DArchitects%2BDaughter;strokeColor=default;align=center;verticalAlign=middle;fontSize=12;fontColor=default;fontStyle=1;fillColor=default;" vertex="1" parent="njrWuHVzc1N4BweSturP-1168">
          <mxGeometry y="30" width="120" height="30" as="geometry" />
        </mxCell>
        <mxCell id="njrWuHVzc1N4BweSturP-1170" value="pkts" style="rounded=0;whiteSpace=wrap;html=1;sketch=1;hachureGap=4;jiggle=2;curveFitting=1;fontFamily=Architects Daughter;fontSource=https%3A%2F%2Ffonts.googleapis.com%2Fcss%3Ffamily%3DArchitects%2BDaughter;strokeColor=default;align=center;verticalAlign=middle;fontSize=12;fontColor=default;fontStyle=1;fillColor=default;" vertex="1" parent="njrWuHVzc1N4BweSturP-1168">
          <mxGeometry x="140" y="30" width="80" height="30" as="geometry" />
        </mxCell>
        <mxCell id="njrWuHVzc1N4BweSturP-1171" style="edgeStyle=orthogonalEdgeStyle;rounded=0;sketch=1;hachureGap=4;jiggle=2;curveFitting=1;orthogonalLoop=1;jettySize=auto;html=1;exitX=0.5;exitY=1;exitDx=0;exitDy=0;entryX=0.5;entryY=0;entryDx=0;entryDy=0;fontFamily=Architects Daughter;fontSource=https%3A%2F%2Ffonts.googleapis.com%2Fcss%3Ffamily%3DArchitects%2BDaughter;fontSize=12;fontColor=default;fontStyle=1;curved=1;" edge="1" parent="njrWuHVzc1N4BweSturP-1168" source="njrWuHVzc1N4BweSturP-1172" target="njrWuHVzc1N4BweSturP-1175">
          <mxGeometry relative="1" as="geometry" />
        </mxCell>
        <mxCell id="njrWuHVzc1N4BweSturP-1172" value="*sw_hdr" style="rounded=0;whiteSpace=wrap;html=1;sketch=1;hachureGap=4;jiggle=2;curveFitting=1;fontFamily=Architects Daughter;fontSource=https%3A%2F%2Ffonts.googleapis.com%2Fcss%3Ffamily%3DArchitects%2BDaughter;strokeColor=default;align=center;verticalAlign=middle;fontSize=12;fontColor=default;fontStyle=1;fillColor=default;" vertex="1" parent="njrWuHVzc1N4BweSturP-1168">
          <mxGeometry y="60" width="60" height="20" as="geometry" />
        </mxCell>
        <mxCell id="njrWuHVzc1N4BweSturP-1173" value="hw_hdr" style="rounded=0;whiteSpace=wrap;html=1;sketch=1;hachureGap=4;jiggle=2;curveFitting=1;fontFamily=Architects Daughter;fontSource=https%3A%2F%2Ffonts.googleapis.com%2Fcss%3Ffamily%3DArchitects%2BDaughter;strokeColor=default;align=center;verticalAlign=middle;fontSize=12;fontColor=default;fontStyle=1;fillColor=default;" vertex="1" parent="njrWuHVzc1N4BweSturP-1168">
          <mxGeometry x="60" y="60" width="60" height="20" as="geometry" />
        </mxCell>
        <mxCell id="njrWuHVzc1N4BweSturP-1174" value="pad" style="rounded=0;whiteSpace=wrap;html=1;sketch=1;hachureGap=4;jiggle=2;curveFitting=1;fontFamily=Architects Daughter;fontSource=https%3A%2F%2Ffonts.googleapis.com%2Fcss%3Ffamily%3DArchitects%2BDaughter;strokeColor=default;align=center;verticalAlign=middle;fontSize=12;fontColor=default;fontStyle=1;fillColor=default;" vertex="1" parent="njrWuHVzc1N4BweSturP-1168">
          <mxGeometry x="120" y="30" width="20" height="30" as="geometry" />
        </mxCell>
        <mxCell id="njrWuHVzc1N4BweSturP-1175" value="&amp;nbsp; &amp;nbsp;sw_hdr" style="swimlane;fontStyle=0;childLayout=stackLayout;horizontal=1;startSize=20;fillColor=none;horizontalStack=0;resizeParent=1;resizeParentMax=0;resizeLast=0;collapsible=1;marginBottom=0;html=1;sketch=1;hachureGap=4;jiggle=2;curveFitting=1;strokeColor=default;align=center;verticalAlign=middle;fontFamily=Architects Daughter;fontSource=https%3A%2F%2Ffonts.googleapis.com%2Fcss%3Ffamily%3DArchitects%2BDaughter;fontSize=12;fontColor=default;" vertex="1" parent="njrWuHVzc1N4BweSturP-1168">
          <mxGeometry x="31.25" y="105" width="57.5" height="104" as="geometry">
            <mxRectangle x="32.5" y="140" width="57.5" height="20" as="alternateBounds" />
          </mxGeometry>
        </mxCell>
        <mxCell id="njrWuHVzc1N4BweSturP-1176" value="sta" style="text;strokeColor=none;fillColor=none;align=left;verticalAlign=top;spacingLeft=4;spacingRight=4;overflow=hidden;rotatable=0;points=[[0,0.5],[1,0.5]];portConstraint=eastwest;whiteSpace=wrap;html=1;fontFamily=Architects Daughter;fontSource=https%3A%2F%2Ffonts.googleapis.com%2Fcss%3Ffamily%3DArchitects%2BDaughter;fontSize=12;fontColor=default;fontStyle=1;" vertex="1" parent="njrWuHVzc1N4BweSturP-1175">
          <mxGeometry y="20" width="57.5" height="24" as="geometry" />
        </mxCell>
        <mxCell id="njrWuHVzc1N4BweSturP-1177" value="vif" style="text;strokeColor=none;fillColor=none;align=left;verticalAlign=top;spacingLeft=4;spacingRight=4;overflow=hidden;rotatable=0;points=[[0,0.5],[1,0.5]];portConstraint=eastwest;whiteSpace=wrap;html=1;fontFamily=Architects Daughter;fontSource=https%3A%2F%2Ffonts.googleapis.com%2Fcss%3Ffamily%3DArchitects%2BDaughter;fontSize=12;fontColor=default;fontStyle=1;" vertex="1" parent="njrWuHVzc1N4BweSturP-1175">
          <mxGeometry y="44" width="57.5" height="20" as="geometry" />
        </mxCell>
        <mxCell id="njrWuHVzc1N4BweSturP-1178" value=". . ." style="text;strokeColor=none;fillColor=none;align=left;verticalAlign=top;spacingLeft=4;spacingRight=4;overflow=hidden;rotatable=0;points=[[0,0.5],[1,0.5]];portConstraint=eastwest;whiteSpace=wrap;html=1;fontFamily=Architects Daughter;fontSource=https%3A%2F%2Ffonts.googleapis.com%2Fcss%3Ffamily%3DArchitects%2BDaughter;fontSize=12;fontColor=default;fontStyle=1;" vertex="1" parent="njrWuHVzc1N4BweSturP-1175">
          <mxGeometry y="64" width="57.5" height="20" as="geometry" />
        </mxCell>
        <mxCell id="njrWuHVzc1N4BweSturP-1179" value="hwq" style="text;strokeColor=default;fillColor=none;align=left;verticalAlign=top;spacingLeft=4;spacingRight=4;overflow=hidden;rotatable=0;points=[[0,0.5],[1,0.5]];portConstraint=eastwest;whiteSpace=wrap;html=1;fontFamily=Architects Daughter;fontSource=https%3A%2F%2Ffonts.googleapis.com%2Fcss%3Ffamily%3DArchitects%2BDaughter;fontSize=12;fontColor=default;fontStyle=1;" vertex="1" parent="njrWuHVzc1N4BweSturP-1175">
          <mxGeometry y="84" width="57.5" height="20" as="geometry" />
        </mxCell>
        <mxCell id="njrWuHVzc1N4BweSturP-1180" value="&amp;nbsp; &amp;nbsp;sw_hdr" style="swimlane;fontStyle=0;childLayout=stackLayout;horizontal=1;startSize=20;fillColor=none;horizontalStack=0;resizeParent=1;resizeParentMax=0;resizeLast=0;collapsible=1;marginBottom=0;html=1;sketch=1;hachureGap=4;jiggle=2;curveFitting=1;strokeColor=default;align=center;verticalAlign=middle;fontFamily=Architects Daughter;fontSource=https%3A%2F%2Ffonts.googleapis.com%2Fcss%3Ffamily%3DArchitects%2BDaughter;fontSize=12;fontColor=default;" vertex="1" parent="njrWuHVzc1N4BweSturP-1168">
          <mxGeometry x="140" y="105" width="57.5" height="104" as="geometry">
            <mxRectangle x="32.5" y="140" width="57.5" height="20" as="alternateBounds" />
          </mxGeometry>
        </mxCell>
        <mxCell id="njrWuHVzc1N4BweSturP-1181" value="AC_BK" style="text;strokeColor=default;fillColor=none;align=left;verticalAlign=top;spacingLeft=4;spacingRight=4;overflow=hidden;rotatable=0;points=[[0,0.5],[1,0.5]];portConstraint=eastwest;whiteSpace=wrap;html=1;fontFamily=Architects Daughter;fontSource=https%3A%2F%2Ffonts.googleapis.com%2Fcss%3Ffamily%3DArchitects%2BDaughter;fontSize=12;fontColor=default;fontStyle=1;" vertex="1" parent="njrWuHVzc1N4BweSturP-1180">
          <mxGeometry y="20" width="57.5" height="24" as="geometry" />
        </mxCell>
        <mxCell id="njrWuHVzc1N4BweSturP-1182" value="AC_BE" style="text;strokeColor=default;fillColor=none;align=left;verticalAlign=top;spacingLeft=4;spacingRight=4;overflow=hidden;rotatable=0;points=[[0,0.5],[1,0.5]];portConstraint=eastwest;whiteSpace=wrap;html=1;fontFamily=Architects Daughter;fontSource=https%3A%2F%2Ffonts.googleapis.com%2Fcss%3Ffamily%3DArchitects%2BDaughter;fontSize=12;fontColor=default;fontStyle=1;" vertex="1" parent="njrWuHVzc1N4BweSturP-1180">
          <mxGeometry y="44" width="57.5" height="20" as="geometry" />
        </mxCell>
        <mxCell id="njrWuHVzc1N4BweSturP-1183" value="AC_VI" style="text;strokeColor=none;fillColor=none;align=left;verticalAlign=top;spacingLeft=4;spacingRight=4;overflow=hidden;rotatable=0;points=[[0,0.5],[1,0.5]];portConstraint=eastwest;whiteSpace=wrap;html=1;fontFamily=Architects Daughter;fontSource=https%3A%2F%2Ffonts.googleapis.com%2Fcss%3Ffamily%3DArchitects%2BDaughter;fontSize=12;fontColor=default;fontStyle=1;" vertex="1" parent="njrWuHVzc1N4BweSturP-1180">
          <mxGeometry y="64" width="57.5" height="20" as="geometry" />
        </mxCell>
        <mxCell id="njrWuHVzc1N4BweSturP-1184" value="AC_VO" style="text;strokeColor=default;fillColor=none;align=left;verticalAlign=top;spacingLeft=4;spacingRight=4;overflow=hidden;rotatable=0;points=[[0,0.5],[1,0.5]];portConstraint=eastwest;whiteSpace=wrap;html=1;fontFamily=Architects Daughter;fontSource=https%3A%2F%2Ffonts.googleapis.com%2Fcss%3Ffamily%3DArchitects%2BDaughter;fontSize=12;fontColor=default;fontStyle=1;" vertex="1" parent="njrWuHVzc1N4BweSturP-1180">
          <mxGeometry y="84" width="57.5" height="20" as="geometry" />
        </mxCell>
        <mxCell id="njrWuHVzc1N4BweSturP-1185" style="edgeStyle=orthogonalEdgeStyle;rounded=0;sketch=1;hachureGap=4;jiggle=2;curveFitting=1;orthogonalLoop=1;jettySize=auto;html=1;exitX=1;exitY=0.5;exitDx=0;exitDy=0;fontFamily=Architects Daughter;fontSource=https%3A%2F%2Ffonts.googleapis.com%2Fcss%3Ffamily%3DArchitects%2BDaughter;fontSize=12;fontColor=default;fontStyle=1;curved=1;" edge="1" parent="njrWuHVzc1N4BweSturP-1168" source="njrWuHVzc1N4BweSturP-1179" target="njrWuHVzc1N4BweSturP-1180">
          <mxGeometry relative="1" as="geometry" />
        </mxCell>
        <mxCell id="njrWuHVzc1N4BweSturP-1186" value="" style="edgeStyle=orthogonalEdgeStyle;rounded=0;sketch=1;hachureGap=4;jiggle=2;curveFitting=1;orthogonalLoop=1;jettySize=auto;html=1;" edge="1" parent="njrWuHVzc1N4BweSturP-584" source="njrWuHVzc1N4BweSturP-1168" target="njrWuHVzc1N4BweSturP-1187">
          <mxGeometry relative="1" as="geometry">
            <mxPoint x="1038.1799999999994" y="748" as="sourcePoint" />
          </mxGeometry>
        </mxCell>
        <mxCell id="njrWuHVzc1N4BweSturP-1187" value=". . ." style="swimlane;whiteSpace=wrap;html=1;sketch=1;hachureGap=4;jiggle=2;curveFitting=1;fontFamily=Architects Daughter;fontSource=https%3A%2F%2Ffonts.googleapis.com%2Fcss%3Ffamily%3DArchitects%2BDaughter;resizable=1;strokeColor=default;align=center;verticalAlign=middle;fontSize=12;fontColor=default;fontStyle=1;fillColor=default;startSize=30;" vertex="1" collapsed="1" parent="njrWuHVzc1N4BweSturP-584">
          <mxGeometry x="300" y="20" width="80" height="30" as="geometry">
            <mxRectangle x="300" y="20" width="220" height="220" as="alternateBounds" />
          </mxGeometry>
        </mxCell>
        <mxCell id="njrWuHVzc1N4BweSturP-1188" value="txhdr" style="rounded=0;whiteSpace=wrap;html=1;sketch=1;hachureGap=4;jiggle=2;curveFitting=1;fontFamily=Architects Daughter;fontSource=https%3A%2F%2Ffonts.googleapis.com%2Fcss%3Ffamily%3DArchitects%2BDaughter;strokeColor=default;align=center;verticalAlign=middle;fontSize=12;fontColor=default;fontStyle=1;fillColor=default;" vertex="1" parent="njrWuHVzc1N4BweSturP-1187">
          <mxGeometry y="30" width="120" height="30" as="geometry" />
        </mxCell>
        <mxCell id="njrWuHVzc1N4BweSturP-1189" value="pkts" style="rounded=0;whiteSpace=wrap;html=1;sketch=1;hachureGap=4;jiggle=2;curveFitting=1;fontFamily=Architects Daughter;fontSource=https%3A%2F%2Ffonts.googleapis.com%2Fcss%3Ffamily%3DArchitects%2BDaughter;strokeColor=default;align=center;verticalAlign=middle;fontSize=12;fontColor=default;fontStyle=1;fillColor=default;" vertex="1" parent="njrWuHVzc1N4BweSturP-1187">
          <mxGeometry x="140" y="30" width="80" height="30" as="geometry" />
        </mxCell>
        <mxCell id="njrWuHVzc1N4BweSturP-1190" style="edgeStyle=orthogonalEdgeStyle;rounded=0;sketch=1;hachureGap=4;jiggle=2;curveFitting=1;orthogonalLoop=1;jettySize=auto;html=1;exitX=0.5;exitY=1;exitDx=0;exitDy=0;entryX=0.5;entryY=0;entryDx=0;entryDy=0;fontFamily=Architects Daughter;fontSource=https%3A%2F%2Ffonts.googleapis.com%2Fcss%3Ffamily%3DArchitects%2BDaughter;fontSize=12;fontColor=default;fontStyle=1;curved=1;" edge="1" parent="njrWuHVzc1N4BweSturP-1187" source="njrWuHVzc1N4BweSturP-1191" target="njrWuHVzc1N4BweSturP-1194">
          <mxGeometry relative="1" as="geometry" />
        </mxCell>
        <mxCell id="njrWuHVzc1N4BweSturP-1191" value="*sw_hdr" style="rounded=0;whiteSpace=wrap;html=1;sketch=1;hachureGap=4;jiggle=2;curveFitting=1;fontFamily=Architects Daughter;fontSource=https%3A%2F%2Ffonts.googleapis.com%2Fcss%3Ffamily%3DArchitects%2BDaughter;strokeColor=default;align=center;verticalAlign=middle;fontSize=12;fontColor=default;fontStyle=1;fillColor=default;" vertex="1" parent="njrWuHVzc1N4BweSturP-1187">
          <mxGeometry y="60" width="60" height="20" as="geometry" />
        </mxCell>
        <mxCell id="njrWuHVzc1N4BweSturP-1192" value="hw_hdr" style="rounded=0;whiteSpace=wrap;html=1;sketch=1;hachureGap=4;jiggle=2;curveFitting=1;fontFamily=Architects Daughter;fontSource=https%3A%2F%2Ffonts.googleapis.com%2Fcss%3Ffamily%3DArchitects%2BDaughter;strokeColor=default;align=center;verticalAlign=middle;fontSize=12;fontColor=default;fontStyle=1;fillColor=default;" vertex="1" parent="njrWuHVzc1N4BweSturP-1187">
          <mxGeometry x="60" y="60" width="60" height="20" as="geometry" />
        </mxCell>
        <mxCell id="njrWuHVzc1N4BweSturP-1193" value="pad" style="rounded=0;whiteSpace=wrap;html=1;sketch=1;hachureGap=4;jiggle=2;curveFitting=1;fontFamily=Architects Daughter;fontSource=https%3A%2F%2Ffonts.googleapis.com%2Fcss%3Ffamily%3DArchitects%2BDaughter;strokeColor=default;align=center;verticalAlign=middle;fontSize=12;fontColor=default;fontStyle=1;fillColor=default;" vertex="1" parent="njrWuHVzc1N4BweSturP-1187">
          <mxGeometry x="120" y="30" width="20" height="30" as="geometry" />
        </mxCell>
        <mxCell id="njrWuHVzc1N4BweSturP-1194" value="&amp;nbsp; &amp;nbsp;sw_hdr" style="swimlane;fontStyle=0;childLayout=stackLayout;horizontal=1;startSize=20;fillColor=none;horizontalStack=0;resizeParent=1;resizeParentMax=0;resizeLast=0;collapsible=1;marginBottom=0;html=1;sketch=1;hachureGap=4;jiggle=2;curveFitting=1;strokeColor=default;align=center;verticalAlign=middle;fontFamily=Architects Daughter;fontSource=https%3A%2F%2Ffonts.googleapis.com%2Fcss%3Ffamily%3DArchitects%2BDaughter;fontSize=12;fontColor=default;" vertex="1" parent="njrWuHVzc1N4BweSturP-1187">
          <mxGeometry x="31.25" y="105" width="57.5" height="104" as="geometry">
            <mxRectangle x="32.5" y="140" width="57.5" height="20" as="alternateBounds" />
          </mxGeometry>
        </mxCell>
        <mxCell id="njrWuHVzc1N4BweSturP-1195" value="sta" style="text;strokeColor=none;fillColor=none;align=left;verticalAlign=top;spacingLeft=4;spacingRight=4;overflow=hidden;rotatable=0;points=[[0,0.5],[1,0.5]];portConstraint=eastwest;whiteSpace=wrap;html=1;fontFamily=Architects Daughter;fontSource=https%3A%2F%2Ffonts.googleapis.com%2Fcss%3Ffamily%3DArchitects%2BDaughter;fontSize=12;fontColor=default;fontStyle=1;" vertex="1" parent="njrWuHVzc1N4BweSturP-1194">
          <mxGeometry y="20" width="57.5" height="24" as="geometry" />
        </mxCell>
        <mxCell id="njrWuHVzc1N4BweSturP-1196" value="vif" style="text;strokeColor=none;fillColor=none;align=left;verticalAlign=top;spacingLeft=4;spacingRight=4;overflow=hidden;rotatable=0;points=[[0,0.5],[1,0.5]];portConstraint=eastwest;whiteSpace=wrap;html=1;fontFamily=Architects Daughter;fontSource=https%3A%2F%2Ffonts.googleapis.com%2Fcss%3Ffamily%3DArchitects%2BDaughter;fontSize=12;fontColor=default;fontStyle=1;" vertex="1" parent="njrWuHVzc1N4BweSturP-1194">
          <mxGeometry y="44" width="57.5" height="20" as="geometry" />
        </mxCell>
        <mxCell id="njrWuHVzc1N4BweSturP-1197" value=". . ." style="text;strokeColor=none;fillColor=none;align=left;verticalAlign=top;spacingLeft=4;spacingRight=4;overflow=hidden;rotatable=0;points=[[0,0.5],[1,0.5]];portConstraint=eastwest;whiteSpace=wrap;html=1;fontFamily=Architects Daughter;fontSource=https%3A%2F%2Ffonts.googleapis.com%2Fcss%3Ffamily%3DArchitects%2BDaughter;fontSize=12;fontColor=default;fontStyle=1;" vertex="1" parent="njrWuHVzc1N4BweSturP-1194">
          <mxGeometry y="64" width="57.5" height="20" as="geometry" />
        </mxCell>
        <mxCell id="njrWuHVzc1N4BweSturP-1198" value="hwq" style="text;strokeColor=default;fillColor=none;align=left;verticalAlign=top;spacingLeft=4;spacingRight=4;overflow=hidden;rotatable=0;points=[[0,0.5],[1,0.5]];portConstraint=eastwest;whiteSpace=wrap;html=1;fontFamily=Architects Daughter;fontSource=https%3A%2F%2Ffonts.googleapis.com%2Fcss%3Ffamily%3DArchitects%2BDaughter;fontSize=12;fontColor=default;fontStyle=1;" vertex="1" parent="njrWuHVzc1N4BweSturP-1194">
          <mxGeometry y="84" width="57.5" height="20" as="geometry" />
        </mxCell>
        <mxCell id="njrWuHVzc1N4BweSturP-1199" value="&amp;nbsp; &amp;nbsp;sw_hdr" style="swimlane;fontStyle=0;childLayout=stackLayout;horizontal=1;startSize=20;fillColor=none;horizontalStack=0;resizeParent=1;resizeParentMax=0;resizeLast=0;collapsible=1;marginBottom=0;html=1;sketch=1;hachureGap=4;jiggle=2;curveFitting=1;strokeColor=default;align=center;verticalAlign=middle;fontFamily=Architects Daughter;fontSource=https%3A%2F%2Ffonts.googleapis.com%2Fcss%3Ffamily%3DArchitects%2BDaughter;fontSize=12;fontColor=default;" vertex="1" parent="njrWuHVzc1N4BweSturP-1187">
          <mxGeometry x="140" y="105" width="57.5" height="104" as="geometry">
            <mxRectangle x="32.5" y="140" width="57.5" height="20" as="alternateBounds" />
          </mxGeometry>
        </mxCell>
        <mxCell id="njrWuHVzc1N4BweSturP-1200" value="AC_BK" style="text;strokeColor=default;fillColor=none;align=left;verticalAlign=top;spacingLeft=4;spacingRight=4;overflow=hidden;rotatable=0;points=[[0,0.5],[1,0.5]];portConstraint=eastwest;whiteSpace=wrap;html=1;fontFamily=Architects Daughter;fontSource=https%3A%2F%2Ffonts.googleapis.com%2Fcss%3Ffamily%3DArchitects%2BDaughter;fontSize=12;fontColor=default;fontStyle=1;" vertex="1" parent="njrWuHVzc1N4BweSturP-1199">
          <mxGeometry y="20" width="57.5" height="24" as="geometry" />
        </mxCell>
        <mxCell id="njrWuHVzc1N4BweSturP-1201" value="AC_BE" style="text;strokeColor=default;fillColor=none;align=left;verticalAlign=top;spacingLeft=4;spacingRight=4;overflow=hidden;rotatable=0;points=[[0,0.5],[1,0.5]];portConstraint=eastwest;whiteSpace=wrap;html=1;fontFamily=Architects Daughter;fontSource=https%3A%2F%2Ffonts.googleapis.com%2Fcss%3Ffamily%3DArchitects%2BDaughter;fontSize=12;fontColor=default;fontStyle=1;" vertex="1" parent="njrWuHVzc1N4BweSturP-1199">
          <mxGeometry y="44" width="57.5" height="20" as="geometry" />
        </mxCell>
        <mxCell id="njrWuHVzc1N4BweSturP-1202" value="AC_VI" style="text;strokeColor=none;fillColor=none;align=left;verticalAlign=top;spacingLeft=4;spacingRight=4;overflow=hidden;rotatable=0;points=[[0,0.5],[1,0.5]];portConstraint=eastwest;whiteSpace=wrap;html=1;fontFamily=Architects Daughter;fontSource=https%3A%2F%2Ffonts.googleapis.com%2Fcss%3Ffamily%3DArchitects%2BDaughter;fontSize=12;fontColor=default;fontStyle=1;" vertex="1" parent="njrWuHVzc1N4BweSturP-1199">
          <mxGeometry y="64" width="57.5" height="20" as="geometry" />
        </mxCell>
        <mxCell id="njrWuHVzc1N4BweSturP-1203" value="AC_VO" style="text;strokeColor=default;fillColor=none;align=left;verticalAlign=top;spacingLeft=4;spacingRight=4;overflow=hidden;rotatable=0;points=[[0,0.5],[1,0.5]];portConstraint=eastwest;whiteSpace=wrap;html=1;fontFamily=Architects Daughter;fontSource=https%3A%2F%2Ffonts.googleapis.com%2Fcss%3Ffamily%3DArchitects%2BDaughter;fontSize=12;fontColor=default;fontStyle=1;" vertex="1" parent="njrWuHVzc1N4BweSturP-1199">
          <mxGeometry y="84" width="57.5" height="20" as="geometry" />
        </mxCell>
        <mxCell id="njrWuHVzc1N4BweSturP-1204" style="edgeStyle=orthogonalEdgeStyle;rounded=0;sketch=1;hachureGap=4;jiggle=2;curveFitting=1;orthogonalLoop=1;jettySize=auto;html=1;exitX=1;exitY=0.5;exitDx=0;exitDy=0;fontFamily=Architects Daughter;fontSource=https%3A%2F%2Ffonts.googleapis.com%2Fcss%3Ffamily%3DArchitects%2BDaughter;fontSize=12;fontColor=default;fontStyle=1;curved=1;" edge="1" parent="njrWuHVzc1N4BweSturP-1187" source="njrWuHVzc1N4BweSturP-1198" target="njrWuHVzc1N4BweSturP-1199">
          <mxGeometry relative="1" as="geometry" />
        </mxCell>
        <mxCell id="njrWuHVzc1N4BweSturP-529" value="ID n" style="swimlane;startSize=20;horizontal=0;childLayout=treeLayout;horizontalTree=1;resizable=1;containerType=tree;fontSize=12;sketch=1;hachureGap=4;jiggle=2;curveFitting=1;strokeColor=default;align=center;verticalAlign=middle;fontFamily=Architects Daughter;fontSource=https%3A%2F%2Ffonts.googleapis.com%2Fcss%3Ffamily%3DArchitects%2BDaughter;fontColor=default;fontStyle=1;fillColor=default;autosize=0;fixedWidth=0;aspect=fixed;" vertex="1" parent="njrWuHVzc1N4BweSturP-253">
          <mxGeometry y="368" width="400" height="70" as="geometry">
            <mxRectangle y="20" width="640" height="30" as="alternateBounds" />
          </mxGeometry>
        </mxCell>
        <mxCell id="njrWuHVzc1N4BweSturP-1205" value="skb" style="swimlane;whiteSpace=wrap;html=1;sketch=1;hachureGap=4;jiggle=2;curveFitting=1;fontFamily=Architects Daughter;fontSource=https%3A%2F%2Ffonts.googleapis.com%2Fcss%3Ffamily%3DArchitects%2BDaughter;resizable=1;strokeColor=default;align=center;verticalAlign=middle;fontSize=12;fontColor=default;fontStyle=1;fillColor=default;startSize=30;" vertex="1" collapsed="1" parent="njrWuHVzc1N4BweSturP-529">
          <mxGeometry x="40" y="20" width="80" height="30" as="geometry">
            <mxRectangle x="40" y="20" width="220" height="220" as="alternateBounds" />
          </mxGeometry>
        </mxCell>
        <mxCell id="njrWuHVzc1N4BweSturP-1206" value="txhdr" style="rounded=0;whiteSpace=wrap;html=1;sketch=1;hachureGap=4;jiggle=2;curveFitting=1;fontFamily=Architects Daughter;fontSource=https%3A%2F%2Ffonts.googleapis.com%2Fcss%3Ffamily%3DArchitects%2BDaughter;strokeColor=default;align=center;verticalAlign=middle;fontSize=12;fontColor=default;fontStyle=1;fillColor=default;" vertex="1" parent="njrWuHVzc1N4BweSturP-1205">
          <mxGeometry y="30" width="120" height="30" as="geometry" />
        </mxCell>
        <mxCell id="njrWuHVzc1N4BweSturP-1207" value="pkts" style="rounded=0;whiteSpace=wrap;html=1;sketch=1;hachureGap=4;jiggle=2;curveFitting=1;fontFamily=Architects Daughter;fontSource=https%3A%2F%2Ffonts.googleapis.com%2Fcss%3Ffamily%3DArchitects%2BDaughter;strokeColor=default;align=center;verticalAlign=middle;fontSize=12;fontColor=default;fontStyle=1;fillColor=default;" vertex="1" parent="njrWuHVzc1N4BweSturP-1205">
          <mxGeometry x="140" y="30" width="80" height="30" as="geometry" />
        </mxCell>
        <mxCell id="njrWuHVzc1N4BweSturP-1208" style="edgeStyle=orthogonalEdgeStyle;rounded=0;sketch=1;hachureGap=4;jiggle=2;curveFitting=1;orthogonalLoop=1;jettySize=auto;html=1;exitX=0.5;exitY=1;exitDx=0;exitDy=0;entryX=0.5;entryY=0;entryDx=0;entryDy=0;fontFamily=Architects Daughter;fontSource=https%3A%2F%2Ffonts.googleapis.com%2Fcss%3Ffamily%3DArchitects%2BDaughter;fontSize=12;fontColor=default;fontStyle=1;curved=1;" edge="1" parent="njrWuHVzc1N4BweSturP-1205" source="njrWuHVzc1N4BweSturP-1209" target="njrWuHVzc1N4BweSturP-1212">
          <mxGeometry relative="1" as="geometry" />
        </mxCell>
        <mxCell id="njrWuHVzc1N4BweSturP-1209" value="*sw_hdr" style="rounded=0;whiteSpace=wrap;html=1;sketch=1;hachureGap=4;jiggle=2;curveFitting=1;fontFamily=Architects Daughter;fontSource=https%3A%2F%2Ffonts.googleapis.com%2Fcss%3Ffamily%3DArchitects%2BDaughter;strokeColor=default;align=center;verticalAlign=middle;fontSize=12;fontColor=default;fontStyle=1;fillColor=default;" vertex="1" parent="njrWuHVzc1N4BweSturP-1205">
          <mxGeometry y="60" width="60" height="20" as="geometry" />
        </mxCell>
        <mxCell id="njrWuHVzc1N4BweSturP-1210" value="hw_hdr" style="rounded=0;whiteSpace=wrap;html=1;sketch=1;hachureGap=4;jiggle=2;curveFitting=1;fontFamily=Architects Daughter;fontSource=https%3A%2F%2Ffonts.googleapis.com%2Fcss%3Ffamily%3DArchitects%2BDaughter;strokeColor=default;align=center;verticalAlign=middle;fontSize=12;fontColor=default;fontStyle=1;fillColor=default;" vertex="1" parent="njrWuHVzc1N4BweSturP-1205">
          <mxGeometry x="60" y="60" width="60" height="20" as="geometry" />
        </mxCell>
        <mxCell id="njrWuHVzc1N4BweSturP-1211" value="pad" style="rounded=0;whiteSpace=wrap;html=1;sketch=1;hachureGap=4;jiggle=2;curveFitting=1;fontFamily=Architects Daughter;fontSource=https%3A%2F%2Ffonts.googleapis.com%2Fcss%3Ffamily%3DArchitects%2BDaughter;strokeColor=default;align=center;verticalAlign=middle;fontSize=12;fontColor=default;fontStyle=1;fillColor=default;" vertex="1" parent="njrWuHVzc1N4BweSturP-1205">
          <mxGeometry x="120" y="30" width="20" height="30" as="geometry" />
        </mxCell>
        <mxCell id="njrWuHVzc1N4BweSturP-1212" value="&amp;nbsp; &amp;nbsp;sw_hdr" style="swimlane;fontStyle=0;childLayout=stackLayout;horizontal=1;startSize=20;fillColor=none;horizontalStack=0;resizeParent=1;resizeParentMax=0;resizeLast=0;collapsible=1;marginBottom=0;html=1;sketch=1;hachureGap=4;jiggle=2;curveFitting=1;strokeColor=default;align=center;verticalAlign=middle;fontFamily=Architects Daughter;fontSource=https%3A%2F%2Ffonts.googleapis.com%2Fcss%3Ffamily%3DArchitects%2BDaughter;fontSize=12;fontColor=default;" vertex="1" parent="njrWuHVzc1N4BweSturP-1205">
          <mxGeometry x="31.25" y="105" width="57.5" height="104" as="geometry">
            <mxRectangle x="32.5" y="140" width="57.5" height="20" as="alternateBounds" />
          </mxGeometry>
        </mxCell>
        <mxCell id="njrWuHVzc1N4BweSturP-1213" value="sta" style="text;strokeColor=none;fillColor=none;align=left;verticalAlign=top;spacingLeft=4;spacingRight=4;overflow=hidden;rotatable=0;points=[[0,0.5],[1,0.5]];portConstraint=eastwest;whiteSpace=wrap;html=1;fontFamily=Architects Daughter;fontSource=https%3A%2F%2Ffonts.googleapis.com%2Fcss%3Ffamily%3DArchitects%2BDaughter;fontSize=12;fontColor=default;fontStyle=1;" vertex="1" parent="njrWuHVzc1N4BweSturP-1212">
          <mxGeometry y="20" width="57.5" height="24" as="geometry" />
        </mxCell>
        <mxCell id="njrWuHVzc1N4BweSturP-1214" value="vif" style="text;strokeColor=none;fillColor=none;align=left;verticalAlign=top;spacingLeft=4;spacingRight=4;overflow=hidden;rotatable=0;points=[[0,0.5],[1,0.5]];portConstraint=eastwest;whiteSpace=wrap;html=1;fontFamily=Architects Daughter;fontSource=https%3A%2F%2Ffonts.googleapis.com%2Fcss%3Ffamily%3DArchitects%2BDaughter;fontSize=12;fontColor=default;fontStyle=1;" vertex="1" parent="njrWuHVzc1N4BweSturP-1212">
          <mxGeometry y="44" width="57.5" height="20" as="geometry" />
        </mxCell>
        <mxCell id="njrWuHVzc1N4BweSturP-1215" value=". . ." style="text;strokeColor=none;fillColor=none;align=left;verticalAlign=top;spacingLeft=4;spacingRight=4;overflow=hidden;rotatable=0;points=[[0,0.5],[1,0.5]];portConstraint=eastwest;whiteSpace=wrap;html=1;fontFamily=Architects Daughter;fontSource=https%3A%2F%2Ffonts.googleapis.com%2Fcss%3Ffamily%3DArchitects%2BDaughter;fontSize=12;fontColor=default;fontStyle=1;" vertex="1" parent="njrWuHVzc1N4BweSturP-1212">
          <mxGeometry y="64" width="57.5" height="20" as="geometry" />
        </mxCell>
        <mxCell id="njrWuHVzc1N4BweSturP-1216" value="hwq" style="text;strokeColor=default;fillColor=none;align=left;verticalAlign=top;spacingLeft=4;spacingRight=4;overflow=hidden;rotatable=0;points=[[0,0.5],[1,0.5]];portConstraint=eastwest;whiteSpace=wrap;html=1;fontFamily=Architects Daughter;fontSource=https%3A%2F%2Ffonts.googleapis.com%2Fcss%3Ffamily%3DArchitects%2BDaughter;fontSize=12;fontColor=default;fontStyle=1;" vertex="1" parent="njrWuHVzc1N4BweSturP-1212">
          <mxGeometry y="84" width="57.5" height="20" as="geometry" />
        </mxCell>
        <mxCell id="njrWuHVzc1N4BweSturP-1217" value="&amp;nbsp; &amp;nbsp;sw_hdr" style="swimlane;fontStyle=0;childLayout=stackLayout;horizontal=1;startSize=20;fillColor=none;horizontalStack=0;resizeParent=1;resizeParentMax=0;resizeLast=0;collapsible=1;marginBottom=0;html=1;sketch=1;hachureGap=4;jiggle=2;curveFitting=1;strokeColor=default;align=center;verticalAlign=middle;fontFamily=Architects Daughter;fontSource=https%3A%2F%2Ffonts.googleapis.com%2Fcss%3Ffamily%3DArchitects%2BDaughter;fontSize=12;fontColor=default;" vertex="1" parent="njrWuHVzc1N4BweSturP-1205">
          <mxGeometry x="140" y="105" width="57.5" height="104" as="geometry">
            <mxRectangle x="32.5" y="140" width="57.5" height="20" as="alternateBounds" />
          </mxGeometry>
        </mxCell>
        <mxCell id="njrWuHVzc1N4BweSturP-1218" value="AC_BK" style="text;strokeColor=default;fillColor=none;align=left;verticalAlign=top;spacingLeft=4;spacingRight=4;overflow=hidden;rotatable=0;points=[[0,0.5],[1,0.5]];portConstraint=eastwest;whiteSpace=wrap;html=1;fontFamily=Architects Daughter;fontSource=https%3A%2F%2Ffonts.googleapis.com%2Fcss%3Ffamily%3DArchitects%2BDaughter;fontSize=12;fontColor=default;fontStyle=1;" vertex="1" parent="njrWuHVzc1N4BweSturP-1217">
          <mxGeometry y="20" width="57.5" height="24" as="geometry" />
        </mxCell>
        <mxCell id="njrWuHVzc1N4BweSturP-1219" value="AC_BE" style="text;strokeColor=default;fillColor=none;align=left;verticalAlign=top;spacingLeft=4;spacingRight=4;overflow=hidden;rotatable=0;points=[[0,0.5],[1,0.5]];portConstraint=eastwest;whiteSpace=wrap;html=1;fontFamily=Architects Daughter;fontSource=https%3A%2F%2Ffonts.googleapis.com%2Fcss%3Ffamily%3DArchitects%2BDaughter;fontSize=12;fontColor=default;fontStyle=1;" vertex="1" parent="njrWuHVzc1N4BweSturP-1217">
          <mxGeometry y="44" width="57.5" height="20" as="geometry" />
        </mxCell>
        <mxCell id="njrWuHVzc1N4BweSturP-1220" value="AC_VI" style="text;strokeColor=none;fillColor=none;align=left;verticalAlign=top;spacingLeft=4;spacingRight=4;overflow=hidden;rotatable=0;points=[[0,0.5],[1,0.5]];portConstraint=eastwest;whiteSpace=wrap;html=1;fontFamily=Architects Daughter;fontSource=https%3A%2F%2Ffonts.googleapis.com%2Fcss%3Ffamily%3DArchitects%2BDaughter;fontSize=12;fontColor=default;fontStyle=1;" vertex="1" parent="njrWuHVzc1N4BweSturP-1217">
          <mxGeometry y="64" width="57.5" height="20" as="geometry" />
        </mxCell>
        <mxCell id="njrWuHVzc1N4BweSturP-1221" value="AC_VO" style="text;strokeColor=default;fillColor=none;align=left;verticalAlign=top;spacingLeft=4;spacingRight=4;overflow=hidden;rotatable=0;points=[[0,0.5],[1,0.5]];portConstraint=eastwest;whiteSpace=wrap;html=1;fontFamily=Architects Daughter;fontSource=https%3A%2F%2Ffonts.googleapis.com%2Fcss%3Ffamily%3DArchitects%2BDaughter;fontSize=12;fontColor=default;fontStyle=1;" vertex="1" parent="njrWuHVzc1N4BweSturP-1217">
          <mxGeometry y="84" width="57.5" height="20" as="geometry" />
        </mxCell>
        <mxCell id="njrWuHVzc1N4BweSturP-1222" style="edgeStyle=orthogonalEdgeStyle;rounded=0;sketch=1;hachureGap=4;jiggle=2;curveFitting=1;orthogonalLoop=1;jettySize=auto;html=1;exitX=1;exitY=0.5;exitDx=0;exitDy=0;fontFamily=Architects Daughter;fontSource=https%3A%2F%2Ffonts.googleapis.com%2Fcss%3Ffamily%3DArchitects%2BDaughter;fontSize=12;fontColor=default;fontStyle=1;curved=1;" edge="1" parent="njrWuHVzc1N4BweSturP-1205" source="njrWuHVzc1N4BweSturP-1216" target="njrWuHVzc1N4BweSturP-1217">
          <mxGeometry relative="1" as="geometry" />
        </mxCell>
        <mxCell id="njrWuHVzc1N4BweSturP-1223" value="" style="edgeStyle=orthogonalEdgeStyle;rounded=0;sketch=1;hachureGap=4;jiggle=2;curveFitting=1;orthogonalLoop=1;jettySize=auto;html=1;" edge="1" parent="njrWuHVzc1N4BweSturP-529" source="njrWuHVzc1N4BweSturP-1205" target="njrWuHVzc1N4BweSturP-1224">
          <mxGeometry relative="1" as="geometry" />
        </mxCell>
        <mxCell id="njrWuHVzc1N4BweSturP-1224" value="skb" style="swimlane;whiteSpace=wrap;html=1;sketch=1;hachureGap=4;jiggle=2;curveFitting=1;fontFamily=Architects Daughter;fontSource=https%3A%2F%2Ffonts.googleapis.com%2Fcss%3Ffamily%3DArchitects%2BDaughter;resizable=1;strokeColor=default;align=center;verticalAlign=middle;fontSize=12;fontColor=default;fontStyle=1;fillColor=default;startSize=30;" vertex="1" collapsed="1" parent="njrWuHVzc1N4BweSturP-529">
          <mxGeometry x="170" y="20" width="80" height="30" as="geometry">
            <mxRectangle x="41.81999999999982" y="20" width="220" height="220" as="alternateBounds" />
          </mxGeometry>
        </mxCell>
        <mxCell id="njrWuHVzc1N4BweSturP-1225" value="txhdr" style="rounded=0;whiteSpace=wrap;html=1;sketch=1;hachureGap=4;jiggle=2;curveFitting=1;fontFamily=Architects Daughter;fontSource=https%3A%2F%2Ffonts.googleapis.com%2Fcss%3Ffamily%3DArchitects%2BDaughter;strokeColor=default;align=center;verticalAlign=middle;fontSize=12;fontColor=default;fontStyle=1;fillColor=default;" vertex="1" parent="njrWuHVzc1N4BweSturP-1224">
          <mxGeometry y="30" width="120" height="30" as="geometry" />
        </mxCell>
        <mxCell id="njrWuHVzc1N4BweSturP-1226" value="pkts" style="rounded=0;whiteSpace=wrap;html=1;sketch=1;hachureGap=4;jiggle=2;curveFitting=1;fontFamily=Architects Daughter;fontSource=https%3A%2F%2Ffonts.googleapis.com%2Fcss%3Ffamily%3DArchitects%2BDaughter;strokeColor=default;align=center;verticalAlign=middle;fontSize=12;fontColor=default;fontStyle=1;fillColor=default;" vertex="1" parent="njrWuHVzc1N4BweSturP-1224">
          <mxGeometry x="140" y="30" width="80" height="30" as="geometry" />
        </mxCell>
        <mxCell id="njrWuHVzc1N4BweSturP-1227" style="edgeStyle=orthogonalEdgeStyle;rounded=0;sketch=1;hachureGap=4;jiggle=2;curveFitting=1;orthogonalLoop=1;jettySize=auto;html=1;exitX=0.5;exitY=1;exitDx=0;exitDy=0;entryX=0.5;entryY=0;entryDx=0;entryDy=0;fontFamily=Architects Daughter;fontSource=https%3A%2F%2Ffonts.googleapis.com%2Fcss%3Ffamily%3DArchitects%2BDaughter;fontSize=12;fontColor=default;fontStyle=1;curved=1;" edge="1" parent="njrWuHVzc1N4BweSturP-1224" source="njrWuHVzc1N4BweSturP-1228" target="njrWuHVzc1N4BweSturP-1231">
          <mxGeometry relative="1" as="geometry" />
        </mxCell>
        <mxCell id="njrWuHVzc1N4BweSturP-1228" value="*sw_hdr" style="rounded=0;whiteSpace=wrap;html=1;sketch=1;hachureGap=4;jiggle=2;curveFitting=1;fontFamily=Architects Daughter;fontSource=https%3A%2F%2Ffonts.googleapis.com%2Fcss%3Ffamily%3DArchitects%2BDaughter;strokeColor=default;align=center;verticalAlign=middle;fontSize=12;fontColor=default;fontStyle=1;fillColor=default;" vertex="1" parent="njrWuHVzc1N4BweSturP-1224">
          <mxGeometry y="60" width="60" height="20" as="geometry" />
        </mxCell>
        <mxCell id="njrWuHVzc1N4BweSturP-1229" value="hw_hdr" style="rounded=0;whiteSpace=wrap;html=1;sketch=1;hachureGap=4;jiggle=2;curveFitting=1;fontFamily=Architects Daughter;fontSource=https%3A%2F%2Ffonts.googleapis.com%2Fcss%3Ffamily%3DArchitects%2BDaughter;strokeColor=default;align=center;verticalAlign=middle;fontSize=12;fontColor=default;fontStyle=1;fillColor=default;" vertex="1" parent="njrWuHVzc1N4BweSturP-1224">
          <mxGeometry x="60" y="60" width="60" height="20" as="geometry" />
        </mxCell>
        <mxCell id="njrWuHVzc1N4BweSturP-1230" value="pad" style="rounded=0;whiteSpace=wrap;html=1;sketch=1;hachureGap=4;jiggle=2;curveFitting=1;fontFamily=Architects Daughter;fontSource=https%3A%2F%2Ffonts.googleapis.com%2Fcss%3Ffamily%3DArchitects%2BDaughter;strokeColor=default;align=center;verticalAlign=middle;fontSize=12;fontColor=default;fontStyle=1;fillColor=default;" vertex="1" parent="njrWuHVzc1N4BweSturP-1224">
          <mxGeometry x="120" y="30" width="20" height="30" as="geometry" />
        </mxCell>
        <mxCell id="njrWuHVzc1N4BweSturP-1231" value="&amp;nbsp; &amp;nbsp;sw_hdr" style="swimlane;fontStyle=0;childLayout=stackLayout;horizontal=1;startSize=20;fillColor=none;horizontalStack=0;resizeParent=1;resizeParentMax=0;resizeLast=0;collapsible=1;marginBottom=0;html=1;sketch=1;hachureGap=4;jiggle=2;curveFitting=1;strokeColor=default;align=center;verticalAlign=middle;fontFamily=Architects Daughter;fontSource=https%3A%2F%2Ffonts.googleapis.com%2Fcss%3Ffamily%3DArchitects%2BDaughter;fontSize=12;fontColor=default;" vertex="1" parent="njrWuHVzc1N4BweSturP-1224">
          <mxGeometry x="31.25" y="105" width="57.5" height="104" as="geometry">
            <mxRectangle x="32.5" y="140" width="57.5" height="20" as="alternateBounds" />
          </mxGeometry>
        </mxCell>
        <mxCell id="njrWuHVzc1N4BweSturP-1232" value="sta" style="text;strokeColor=none;fillColor=none;align=left;verticalAlign=top;spacingLeft=4;spacingRight=4;overflow=hidden;rotatable=0;points=[[0,0.5],[1,0.5]];portConstraint=eastwest;whiteSpace=wrap;html=1;fontFamily=Architects Daughter;fontSource=https%3A%2F%2Ffonts.googleapis.com%2Fcss%3Ffamily%3DArchitects%2BDaughter;fontSize=12;fontColor=default;fontStyle=1;" vertex="1" parent="njrWuHVzc1N4BweSturP-1231">
          <mxGeometry y="20" width="57.5" height="24" as="geometry" />
        </mxCell>
        <mxCell id="njrWuHVzc1N4BweSturP-1233" value="vif" style="text;strokeColor=none;fillColor=none;align=left;verticalAlign=top;spacingLeft=4;spacingRight=4;overflow=hidden;rotatable=0;points=[[0,0.5],[1,0.5]];portConstraint=eastwest;whiteSpace=wrap;html=1;fontFamily=Architects Daughter;fontSource=https%3A%2F%2Ffonts.googleapis.com%2Fcss%3Ffamily%3DArchitects%2BDaughter;fontSize=12;fontColor=default;fontStyle=1;" vertex="1" parent="njrWuHVzc1N4BweSturP-1231">
          <mxGeometry y="44" width="57.5" height="20" as="geometry" />
        </mxCell>
        <mxCell id="njrWuHVzc1N4BweSturP-1234" value=". . ." style="text;strokeColor=none;fillColor=none;align=left;verticalAlign=top;spacingLeft=4;spacingRight=4;overflow=hidden;rotatable=0;points=[[0,0.5],[1,0.5]];portConstraint=eastwest;whiteSpace=wrap;html=1;fontFamily=Architects Daughter;fontSource=https%3A%2F%2Ffonts.googleapis.com%2Fcss%3Ffamily%3DArchitects%2BDaughter;fontSize=12;fontColor=default;fontStyle=1;" vertex="1" parent="njrWuHVzc1N4BweSturP-1231">
          <mxGeometry y="64" width="57.5" height="20" as="geometry" />
        </mxCell>
        <mxCell id="njrWuHVzc1N4BweSturP-1235" value="hwq" style="text;strokeColor=default;fillColor=none;align=left;verticalAlign=top;spacingLeft=4;spacingRight=4;overflow=hidden;rotatable=0;points=[[0,0.5],[1,0.5]];portConstraint=eastwest;whiteSpace=wrap;html=1;fontFamily=Architects Daughter;fontSource=https%3A%2F%2Ffonts.googleapis.com%2Fcss%3Ffamily%3DArchitects%2BDaughter;fontSize=12;fontColor=default;fontStyle=1;" vertex="1" parent="njrWuHVzc1N4BweSturP-1231">
          <mxGeometry y="84" width="57.5" height="20" as="geometry" />
        </mxCell>
        <mxCell id="njrWuHVzc1N4BweSturP-1236" value="&amp;nbsp; &amp;nbsp;sw_hdr" style="swimlane;fontStyle=0;childLayout=stackLayout;horizontal=1;startSize=20;fillColor=none;horizontalStack=0;resizeParent=1;resizeParentMax=0;resizeLast=0;collapsible=1;marginBottom=0;html=1;sketch=1;hachureGap=4;jiggle=2;curveFitting=1;strokeColor=default;align=center;verticalAlign=middle;fontFamily=Architects Daughter;fontSource=https%3A%2F%2Ffonts.googleapis.com%2Fcss%3Ffamily%3DArchitects%2BDaughter;fontSize=12;fontColor=default;" vertex="1" parent="njrWuHVzc1N4BweSturP-1224">
          <mxGeometry x="140" y="105" width="57.5" height="104" as="geometry">
            <mxRectangle x="32.5" y="140" width="57.5" height="20" as="alternateBounds" />
          </mxGeometry>
        </mxCell>
        <mxCell id="njrWuHVzc1N4BweSturP-1237" value="AC_BK" style="text;strokeColor=default;fillColor=none;align=left;verticalAlign=top;spacingLeft=4;spacingRight=4;overflow=hidden;rotatable=0;points=[[0,0.5],[1,0.5]];portConstraint=eastwest;whiteSpace=wrap;html=1;fontFamily=Architects Daughter;fontSource=https%3A%2F%2Ffonts.googleapis.com%2Fcss%3Ffamily%3DArchitects%2BDaughter;fontSize=12;fontColor=default;fontStyle=1;" vertex="1" parent="njrWuHVzc1N4BweSturP-1236">
          <mxGeometry y="20" width="57.5" height="24" as="geometry" />
        </mxCell>
        <mxCell id="njrWuHVzc1N4BweSturP-1238" value="AC_BE" style="text;strokeColor=default;fillColor=none;align=left;verticalAlign=top;spacingLeft=4;spacingRight=4;overflow=hidden;rotatable=0;points=[[0,0.5],[1,0.5]];portConstraint=eastwest;whiteSpace=wrap;html=1;fontFamily=Architects Daughter;fontSource=https%3A%2F%2Ffonts.googleapis.com%2Fcss%3Ffamily%3DArchitects%2BDaughter;fontSize=12;fontColor=default;fontStyle=1;" vertex="1" parent="njrWuHVzc1N4BweSturP-1236">
          <mxGeometry y="44" width="57.5" height="20" as="geometry" />
        </mxCell>
        <mxCell id="njrWuHVzc1N4BweSturP-1239" value="AC_VI" style="text;strokeColor=none;fillColor=none;align=left;verticalAlign=top;spacingLeft=4;spacingRight=4;overflow=hidden;rotatable=0;points=[[0,0.5],[1,0.5]];portConstraint=eastwest;whiteSpace=wrap;html=1;fontFamily=Architects Daughter;fontSource=https%3A%2F%2Ffonts.googleapis.com%2Fcss%3Ffamily%3DArchitects%2BDaughter;fontSize=12;fontColor=default;fontStyle=1;" vertex="1" parent="njrWuHVzc1N4BweSturP-1236">
          <mxGeometry y="64" width="57.5" height="20" as="geometry" />
        </mxCell>
        <mxCell id="njrWuHVzc1N4BweSturP-1240" value="AC_VO" style="text;strokeColor=default;fillColor=none;align=left;verticalAlign=top;spacingLeft=4;spacingRight=4;overflow=hidden;rotatable=0;points=[[0,0.5],[1,0.5]];portConstraint=eastwest;whiteSpace=wrap;html=1;fontFamily=Architects Daughter;fontSource=https%3A%2F%2Ffonts.googleapis.com%2Fcss%3Ffamily%3DArchitects%2BDaughter;fontSize=12;fontColor=default;fontStyle=1;" vertex="1" parent="njrWuHVzc1N4BweSturP-1236">
          <mxGeometry y="84" width="57.5" height="20" as="geometry" />
        </mxCell>
        <mxCell id="njrWuHVzc1N4BweSturP-1241" style="edgeStyle=orthogonalEdgeStyle;rounded=0;sketch=1;hachureGap=4;jiggle=2;curveFitting=1;orthogonalLoop=1;jettySize=auto;html=1;exitX=1;exitY=0.5;exitDx=0;exitDy=0;fontFamily=Architects Daughter;fontSource=https%3A%2F%2Ffonts.googleapis.com%2Fcss%3Ffamily%3DArchitects%2BDaughter;fontSize=12;fontColor=default;fontStyle=1;curved=1;" edge="1" parent="njrWuHVzc1N4BweSturP-1224" source="njrWuHVzc1N4BweSturP-1235" target="njrWuHVzc1N4BweSturP-1236">
          <mxGeometry relative="1" as="geometry" />
        </mxCell>
        <mxCell id="njrWuHVzc1N4BweSturP-1242" value="" style="edgeStyle=orthogonalEdgeStyle;rounded=0;sketch=1;hachureGap=4;jiggle=2;curveFitting=1;orthogonalLoop=1;jettySize=auto;html=1;" edge="1" parent="njrWuHVzc1N4BweSturP-529" source="njrWuHVzc1N4BweSturP-1224" target="njrWuHVzc1N4BweSturP-1243">
          <mxGeometry relative="1" as="geometry">
            <mxPoint x="1038.1799999999998" y="748" as="sourcePoint" />
          </mxGeometry>
        </mxCell>
        <mxCell id="njrWuHVzc1N4BweSturP-1243" value=". . ." style="swimlane;whiteSpace=wrap;html=1;sketch=1;hachureGap=4;jiggle=2;curveFitting=1;fontFamily=Architects Daughter;fontSource=https%3A%2F%2Ffonts.googleapis.com%2Fcss%3Ffamily%3DArchitects%2BDaughter;resizable=1;strokeColor=default;align=center;verticalAlign=middle;fontSize=12;fontColor=default;fontStyle=1;fillColor=default;startSize=30;" vertex="1" collapsed="1" parent="njrWuHVzc1N4BweSturP-529">
          <mxGeometry x="300" y="20" width="80" height="30" as="geometry">
            <mxRectangle x="300" y="20" width="220" height="220" as="alternateBounds" />
          </mxGeometry>
        </mxCell>
        <mxCell id="njrWuHVzc1N4BweSturP-1244" value="txhdr" style="rounded=0;whiteSpace=wrap;html=1;sketch=1;hachureGap=4;jiggle=2;curveFitting=1;fontFamily=Architects Daughter;fontSource=https%3A%2F%2Ffonts.googleapis.com%2Fcss%3Ffamily%3DArchitects%2BDaughter;strokeColor=default;align=center;verticalAlign=middle;fontSize=12;fontColor=default;fontStyle=1;fillColor=default;" vertex="1" parent="njrWuHVzc1N4BweSturP-1243">
          <mxGeometry y="30" width="120" height="30" as="geometry" />
        </mxCell>
        <mxCell id="njrWuHVzc1N4BweSturP-1245" value="pkts" style="rounded=0;whiteSpace=wrap;html=1;sketch=1;hachureGap=4;jiggle=2;curveFitting=1;fontFamily=Architects Daughter;fontSource=https%3A%2F%2Ffonts.googleapis.com%2Fcss%3Ffamily%3DArchitects%2BDaughter;strokeColor=default;align=center;verticalAlign=middle;fontSize=12;fontColor=default;fontStyle=1;fillColor=default;" vertex="1" parent="njrWuHVzc1N4BweSturP-1243">
          <mxGeometry x="140" y="30" width="80" height="30" as="geometry" />
        </mxCell>
        <mxCell id="njrWuHVzc1N4BweSturP-1246" style="edgeStyle=orthogonalEdgeStyle;rounded=0;sketch=1;hachureGap=4;jiggle=2;curveFitting=1;orthogonalLoop=1;jettySize=auto;html=1;exitX=0.5;exitY=1;exitDx=0;exitDy=0;entryX=0.5;entryY=0;entryDx=0;entryDy=0;fontFamily=Architects Daughter;fontSource=https%3A%2F%2Ffonts.googleapis.com%2Fcss%3Ffamily%3DArchitects%2BDaughter;fontSize=12;fontColor=default;fontStyle=1;curved=1;" edge="1" parent="njrWuHVzc1N4BweSturP-1243" source="njrWuHVzc1N4BweSturP-1247" target="njrWuHVzc1N4BweSturP-1250">
          <mxGeometry relative="1" as="geometry" />
        </mxCell>
        <mxCell id="njrWuHVzc1N4BweSturP-1247" value="*sw_hdr" style="rounded=0;whiteSpace=wrap;html=1;sketch=1;hachureGap=4;jiggle=2;curveFitting=1;fontFamily=Architects Daughter;fontSource=https%3A%2F%2Ffonts.googleapis.com%2Fcss%3Ffamily%3DArchitects%2BDaughter;strokeColor=default;align=center;verticalAlign=middle;fontSize=12;fontColor=default;fontStyle=1;fillColor=default;" vertex="1" parent="njrWuHVzc1N4BweSturP-1243">
          <mxGeometry y="60" width="60" height="20" as="geometry" />
        </mxCell>
        <mxCell id="njrWuHVzc1N4BweSturP-1248" value="hw_hdr" style="rounded=0;whiteSpace=wrap;html=1;sketch=1;hachureGap=4;jiggle=2;curveFitting=1;fontFamily=Architects Daughter;fontSource=https%3A%2F%2Ffonts.googleapis.com%2Fcss%3Ffamily%3DArchitects%2BDaughter;strokeColor=default;align=center;verticalAlign=middle;fontSize=12;fontColor=default;fontStyle=1;fillColor=default;" vertex="1" parent="njrWuHVzc1N4BweSturP-1243">
          <mxGeometry x="60" y="60" width="60" height="20" as="geometry" />
        </mxCell>
        <mxCell id="njrWuHVzc1N4BweSturP-1249" value="pad" style="rounded=0;whiteSpace=wrap;html=1;sketch=1;hachureGap=4;jiggle=2;curveFitting=1;fontFamily=Architects Daughter;fontSource=https%3A%2F%2Ffonts.googleapis.com%2Fcss%3Ffamily%3DArchitects%2BDaughter;strokeColor=default;align=center;verticalAlign=middle;fontSize=12;fontColor=default;fontStyle=1;fillColor=default;" vertex="1" parent="njrWuHVzc1N4BweSturP-1243">
          <mxGeometry x="120" y="30" width="20" height="30" as="geometry" />
        </mxCell>
        <mxCell id="njrWuHVzc1N4BweSturP-1250" value="&amp;nbsp; &amp;nbsp;sw_hdr" style="swimlane;fontStyle=0;childLayout=stackLayout;horizontal=1;startSize=20;fillColor=none;horizontalStack=0;resizeParent=1;resizeParentMax=0;resizeLast=0;collapsible=1;marginBottom=0;html=1;sketch=1;hachureGap=4;jiggle=2;curveFitting=1;strokeColor=default;align=center;verticalAlign=middle;fontFamily=Architects Daughter;fontSource=https%3A%2F%2Ffonts.googleapis.com%2Fcss%3Ffamily%3DArchitects%2BDaughter;fontSize=12;fontColor=default;" vertex="1" parent="njrWuHVzc1N4BweSturP-1243">
          <mxGeometry x="31.25" y="105" width="57.5" height="104" as="geometry">
            <mxRectangle x="32.5" y="140" width="57.5" height="20" as="alternateBounds" />
          </mxGeometry>
        </mxCell>
        <mxCell id="njrWuHVzc1N4BweSturP-1251" value="sta" style="text;strokeColor=none;fillColor=none;align=left;verticalAlign=top;spacingLeft=4;spacingRight=4;overflow=hidden;rotatable=0;points=[[0,0.5],[1,0.5]];portConstraint=eastwest;whiteSpace=wrap;html=1;fontFamily=Architects Daughter;fontSource=https%3A%2F%2Ffonts.googleapis.com%2Fcss%3Ffamily%3DArchitects%2BDaughter;fontSize=12;fontColor=default;fontStyle=1;" vertex="1" parent="njrWuHVzc1N4BweSturP-1250">
          <mxGeometry y="20" width="57.5" height="24" as="geometry" />
        </mxCell>
        <mxCell id="njrWuHVzc1N4BweSturP-1252" value="vif" style="text;strokeColor=none;fillColor=none;align=left;verticalAlign=top;spacingLeft=4;spacingRight=4;overflow=hidden;rotatable=0;points=[[0,0.5],[1,0.5]];portConstraint=eastwest;whiteSpace=wrap;html=1;fontFamily=Architects Daughter;fontSource=https%3A%2F%2Ffonts.googleapis.com%2Fcss%3Ffamily%3DArchitects%2BDaughter;fontSize=12;fontColor=default;fontStyle=1;" vertex="1" parent="njrWuHVzc1N4BweSturP-1250">
          <mxGeometry y="44" width="57.5" height="20" as="geometry" />
        </mxCell>
        <mxCell id="njrWuHVzc1N4BweSturP-1253" value=". . ." style="text;strokeColor=none;fillColor=none;align=left;verticalAlign=top;spacingLeft=4;spacingRight=4;overflow=hidden;rotatable=0;points=[[0,0.5],[1,0.5]];portConstraint=eastwest;whiteSpace=wrap;html=1;fontFamily=Architects Daughter;fontSource=https%3A%2F%2Ffonts.googleapis.com%2Fcss%3Ffamily%3DArchitects%2BDaughter;fontSize=12;fontColor=default;fontStyle=1;" vertex="1" parent="njrWuHVzc1N4BweSturP-1250">
          <mxGeometry y="64" width="57.5" height="20" as="geometry" />
        </mxCell>
        <mxCell id="njrWuHVzc1N4BweSturP-1254" value="hwq" style="text;strokeColor=default;fillColor=none;align=left;verticalAlign=top;spacingLeft=4;spacingRight=4;overflow=hidden;rotatable=0;points=[[0,0.5],[1,0.5]];portConstraint=eastwest;whiteSpace=wrap;html=1;fontFamily=Architects Daughter;fontSource=https%3A%2F%2Ffonts.googleapis.com%2Fcss%3Ffamily%3DArchitects%2BDaughter;fontSize=12;fontColor=default;fontStyle=1;" vertex="1" parent="njrWuHVzc1N4BweSturP-1250">
          <mxGeometry y="84" width="57.5" height="20" as="geometry" />
        </mxCell>
        <mxCell id="njrWuHVzc1N4BweSturP-1255" value="&amp;nbsp; &amp;nbsp;sw_hdr" style="swimlane;fontStyle=0;childLayout=stackLayout;horizontal=1;startSize=20;fillColor=none;horizontalStack=0;resizeParent=1;resizeParentMax=0;resizeLast=0;collapsible=1;marginBottom=0;html=1;sketch=1;hachureGap=4;jiggle=2;curveFitting=1;strokeColor=default;align=center;verticalAlign=middle;fontFamily=Architects Daughter;fontSource=https%3A%2F%2Ffonts.googleapis.com%2Fcss%3Ffamily%3DArchitects%2BDaughter;fontSize=12;fontColor=default;" vertex="1" parent="njrWuHVzc1N4BweSturP-1243">
          <mxGeometry x="140" y="105" width="57.5" height="104" as="geometry">
            <mxRectangle x="32.5" y="140" width="57.5" height="20" as="alternateBounds" />
          </mxGeometry>
        </mxCell>
        <mxCell id="njrWuHVzc1N4BweSturP-1256" value="AC_BK" style="text;strokeColor=default;fillColor=none;align=left;verticalAlign=top;spacingLeft=4;spacingRight=4;overflow=hidden;rotatable=0;points=[[0,0.5],[1,0.5]];portConstraint=eastwest;whiteSpace=wrap;html=1;fontFamily=Architects Daughter;fontSource=https%3A%2F%2Ffonts.googleapis.com%2Fcss%3Ffamily%3DArchitects%2BDaughter;fontSize=12;fontColor=default;fontStyle=1;" vertex="1" parent="njrWuHVzc1N4BweSturP-1255">
          <mxGeometry y="20" width="57.5" height="24" as="geometry" />
        </mxCell>
        <mxCell id="njrWuHVzc1N4BweSturP-1257" value="AC_BE" style="text;strokeColor=default;fillColor=none;align=left;verticalAlign=top;spacingLeft=4;spacingRight=4;overflow=hidden;rotatable=0;points=[[0,0.5],[1,0.5]];portConstraint=eastwest;whiteSpace=wrap;html=1;fontFamily=Architects Daughter;fontSource=https%3A%2F%2Ffonts.googleapis.com%2Fcss%3Ffamily%3DArchitects%2BDaughter;fontSize=12;fontColor=default;fontStyle=1;" vertex="1" parent="njrWuHVzc1N4BweSturP-1255">
          <mxGeometry y="44" width="57.5" height="20" as="geometry" />
        </mxCell>
        <mxCell id="njrWuHVzc1N4BweSturP-1258" value="AC_VI" style="text;strokeColor=none;fillColor=none;align=left;verticalAlign=top;spacingLeft=4;spacingRight=4;overflow=hidden;rotatable=0;points=[[0,0.5],[1,0.5]];portConstraint=eastwest;whiteSpace=wrap;html=1;fontFamily=Architects Daughter;fontSource=https%3A%2F%2Ffonts.googleapis.com%2Fcss%3Ffamily%3DArchitects%2BDaughter;fontSize=12;fontColor=default;fontStyle=1;" vertex="1" parent="njrWuHVzc1N4BweSturP-1255">
          <mxGeometry y="64" width="57.5" height="20" as="geometry" />
        </mxCell>
        <mxCell id="njrWuHVzc1N4BweSturP-1259" value="AC_VO" style="text;strokeColor=default;fillColor=none;align=left;verticalAlign=top;spacingLeft=4;spacingRight=4;overflow=hidden;rotatable=0;points=[[0,0.5],[1,0.5]];portConstraint=eastwest;whiteSpace=wrap;html=1;fontFamily=Architects Daughter;fontSource=https%3A%2F%2Ffonts.googleapis.com%2Fcss%3Ffamily%3DArchitects%2BDaughter;fontSize=12;fontColor=default;fontStyle=1;" vertex="1" parent="njrWuHVzc1N4BweSturP-1255">
          <mxGeometry y="84" width="57.5" height="20" as="geometry" />
        </mxCell>
        <mxCell id="njrWuHVzc1N4BweSturP-1260" style="edgeStyle=orthogonalEdgeStyle;rounded=0;sketch=1;hachureGap=4;jiggle=2;curveFitting=1;orthogonalLoop=1;jettySize=auto;html=1;exitX=1;exitY=0.5;exitDx=0;exitDy=0;fontFamily=Architects Daughter;fontSource=https%3A%2F%2Ffonts.googleapis.com%2Fcss%3Ffamily%3DArchitects%2BDaughter;fontSize=12;fontColor=default;fontStyle=1;curved=1;" edge="1" parent="njrWuHVzc1N4BweSturP-1243" source="njrWuHVzc1N4BweSturP-1254" target="njrWuHVzc1N4BweSturP-1255">
          <mxGeometry relative="1" as="geometry" />
        </mxCell>
        <mxCell id="njrWuHVzc1N4BweSturP-257" value="除了cmd 还有？" style="text;html=1;align=center;verticalAlign=middle;resizable=0;points=[];autosize=1;strokeColor=none;fillColor=none;fontFamily=Architects Daughter;fontSource=https%3A%2F%2Ffonts.googleapis.com%2Fcss%3Ffamily%3DArchitects%2BDaughter;" vertex="1" parent="1">
          <mxGeometry x="965" y="148" width="110" height="30" as="geometry" />
        </mxCell>
        <mxCell id="njrWuHVzc1N4BweSturP-404" style="edgeStyle=orthogonalEdgeStyle;rounded=0;sketch=1;hachureGap=4;jiggle=2;curveFitting=1;orthogonalLoop=1;jettySize=auto;html=1;entryX=0;entryY=0.5;entryDx=0;entryDy=0;fontFamily=Architects Daughter;fontSource=https%3A%2F%2Ffonts.googleapis.com%2Fcss%3Ffamily%3DArchitects%2BDaughter;fontSize=12;fontColor=default;fontStyle=1;strokeColor=default;align=center;verticalAlign=middle;startSize=20;fillColor=default;" edge="1" parent="1" target="njrWuHVzc1N4BweSturP-400">
          <mxGeometry relative="1" as="geometry">
            <mxPoint x="1090" y="965" as="sourcePoint" />
          </mxGeometry>
        </mxCell>
        <mxCell id="njrWuHVzc1N4BweSturP-405" style="edgeStyle=orthogonalEdgeStyle;rounded=0;sketch=1;hachureGap=4;jiggle=2;curveFitting=1;orthogonalLoop=1;jettySize=auto;html=1;entryX=0;entryY=0.5;entryDx=0;entryDy=0;fontFamily=Architects Daughter;fontSource=https%3A%2F%2Ffonts.googleapis.com%2Fcss%3Ffamily%3DArchitects%2BDaughter;fontSize=12;fontColor=default;fontStyle=1;strokeColor=default;align=center;verticalAlign=middle;startSize=20;fillColor=default;" edge="1" parent="1" target="njrWuHVzc1N4BweSturP-406">
          <mxGeometry relative="1" as="geometry">
            <mxPoint x="1280" y="965" as="sourcePoint" />
          </mxGeometry>
        </mxCell>
      </root>
    </mxGraphModel>
  </diagram>
</mxfile>
